/* XPM */
static char *result[] = {
/* columns rows colors chars-per-pixel */
"64 64 9 1 ",
"  c black",
". c #704431",
"X c gray27",
"o c gray37",
"O c #87670F",
"+ c #945A41",
"@ c #BA8E14",
"# c #E5B018",
"$ c #181425",
/* pixels */
"$$$$$$$$$$$$$$$$$$$$$$$$$$$$$$$$$$$$$$$$$$$$$$$$$$$$$$$$$$$$$$$$",
"$$$$$$$$$$$$$$$$$$$$$$$$$$$$$$$$$$$$$$$$$$$$$$$$$$$$$$$$$$$$$$$$",
"$$$$$$$$$$$$$$$$$$$$$$$$$$$$$$$$$$$$$$$$$$$$$$$$$$$$$$$$$$$$$$$$",
"$$$$$$$$$$$$$$$$$$$$$$$$$$$$$$$$$$$$$$$$$$$$$$$$$$$$$$$$$$$$$$$$",
"$$$$$$$$$$$$$$$$$$$$$$$$$$$$$$$$$$$$$$$$$$$$$$$$$$$$$$$$$$$$$$$$",
"$$$$$$$$$$$$$$$$$$$$$$$$$$$$$$$$$$$$$$$$$$$$$$$$$$$$$$$$$$$$$$$$",
"$$$$$$$$$$$$$$$$$$$$$$$$$$$$$$$$$$$$$$$$$$$$$$$$$$$$$$$$$$$$$$$$",
"$$$$$$$$$$$$$$$$$$$$$$$$$$$$$$$$$$$$$$$$$$$$$$$$$$$$$$$$$$$$$$$$",
"$$$$$$$$$$$$$$$$$$$$$$$$$$$$$$$$$$$$$$$$$$$$$$$$$$$$$$$$$$$$$$$$",
"$$$$$$$$$$$$$$$$$$$$$$$$$$$$$$$$$$$$$$$$$$$$$$$$$$$$$$$$$$$$$$$$",
"$$$$$$$$$$$$$$$$$$$$$$$$$$$$$$$$$$$$$$$$$$$$$$$$$$$$$$$$$$$$$$$$",
"$$$$$$$$$$$$$$$$$$$$$$$$$$$$$$$$$$$$$$$$$$$$$$$$$$$$$$$$$$$$$$$$",
"$$$$$$$$$$$$$$$$$$$$$$$$$$$$$$$$$$$$$$$$$$$$$$$$$$$$$$$$$$$$$$$$",
"$$$$$$$$$$$$$$$$$$$$$$$$$$$$$$$$$$$$$$$$$$$$$$$$$$$$$$$$$$$$$$$$",
"$$$$$$$$$$$$$$$$$$$$$$$$$$$$$$$$$$$$$$$$$$$$$$$$$$$$$$$$$$$$$$$$",
"$$$$$$$$$$$$$$$$$$$$$$$$$$$$$$$$$$$$$$$$$$$$$$$$$$$$$$$$$$$$$$$$",
"$$$$$$$$$$$$$$$$$$$$$$$$$$$$$$$$$$$$$$$$$$$$$$$$$$$$$$$$$$$$$$$$",
"$$$$$$$$$$$$$$$$$$$$$$$$$$$$$$$$$$$$$$$$$$$$$$$$$$$$$$$$$$$$$$$$",
"$$$$$$$$$$$$$$$$$$$$$$$$$$$$$$$$$$$$$$$$$$$$$$$$$$$$$$$$$$$$$$$$",
"$$$$$$$$$$$$$$$$$$$$$$$$$$$$$$$$$$$$$$$$$$$$$$$$$$$$$$$$$$$$$$$$",
"$$$$$$$$$$$$$$$$$$$$$$$$$$$$$$$$$$$$$$$$$$$$$$$$$$$$$$$$$$$$$$$$",
"$$$$$$$$$$$$$$$$$$$$$$$$$$$$$$$$$$$$$$$$$$$$$$$$$$$$$$$$$$$$$$$$",
"$$$$$$$$$$$$$$$$$$$$$$$$$$$$$$$$$$$$$$$$$$$$$$$$$$$$$$$$$$$$$$$$",
"$$$$$$$$$$$$$$$$$$$$$$$$$$$$$$$$$$$$$$$$$$$$$$$$$$$$$$$$$$$$$$$$",
"$$$$$$$$$$$$$$$$$$$$$$$$$$$$$$$$$$$$$$$$$$$$$$$$$$$$$$$$$$$$$$$$",
"$$$$$$$$$$$$$$$$$$$$$$$$$$$$$$$$$$$$$$$$$$$$$$$$$$$$$$$$$$$$$$$$",
"$$$$$$$$$$$$$$$$$$$$$$$$$$$$$$$$$$$$$$$$$$$$$$$$$$$$$$$$$$$$$$$$",
"$$$$$$$$$$$$$$$$$$$$$$$$$$$$$$$$$$$$$$$$$$$$$$$$$$$$$$$$$$$$$$$$",
"$$$$$$$$$$$$$$$$$$$$$$$$$$$$$$$$$$$$$$$$$$$$$$$$$$$$$$$$$$$$$$$$",
"$$$$$$$$$$$$$$$$$$$$$$$$$$$$$$$$$$$$$$$$$$$$$$$$$$$$$$$$$$$$$$$$",
"$$$$$$$$$$$$$$$$$$$$$$$$$$$$$$$$$$$$$$$$$$$$$$$$$$$$$$$$$$$$$$$$",
"$$$$$$$$$$$$$$$$$$$$$$$$$$$$$$$$$$$$$$$$$$$$$$$$$$$$$$$$$$$$$$$$",
"$$$$$$$$$$$$$$$$$$$$$$$$$$$$$$$$$$$$$$$$$$$$$$$$$$$$$$$$$$$$$$$$",
"$$$$$$$$$$$$$$$$$$$$$$$$$$$$$$$$$$$$$$$$$$$$$$$$$$$$$$$$$$$$$$$$",
"$$$$$$$$$$$$$$$$$$$$$$$$$$$$$$$$$$$$$$$$$$$$$$$$$$$$$$$$$$$$$$$$",
"$$$$$$$$$$$$$$$$$$$$$$$$$$$$$$$$$$$$$$$$$$$$$$$$$$$$$$$$$$$$$$$$",
"$$$$$$$$$$$$$$$$$$$$    $$$$          $$$$    $$$$$$$$$$$$$$$$$$",
"$$$$$$$$$$$$$$$$$$$$    $$$$          $$$$    $$$$$$$$$$$$$$$$$$",
"$$$$$$$$$$$$$$$$              @@@@@@              $$$$$$$$$$$$$$",
"$$$$$$$$$$$$$$$$              @@@@@@              $$$$$$$$$$$$$$",
"$$$$$$$$$$$$$$$$  ##############  @@@@@@@@@@@@@@  $$$$$$$$$$$$$$",
"$$$$$$$$$$$$$$$$  ##############  @@@@@@@@@@@@@@  $$$$$$$$$$$$$$",
"$$$$$$$$$$$$$$$$              ######              $$$$$$$$$$$$$$",
"$$$$$$$$$$$$$$$$              ######              $$$$$$$$$$$$$$",
"$$$$$$$$$$$$$$$$$$  OO  XXXXXX      XXXXXX  OO  $$$$$$$$$$$$$$$$",
"$$$$$$$$$$$$$$$$$$  OO  XXXXXX      XXXXXX  OO  $$$$$$$$$$$$$$$$",
"$$$$$$$$$$$$$$$$$$  OO  ooooXXXXXXXXXXoooo  OO  $$$$$$$$$$$$$$$$",
"$$$$$$$$$$$$$$$$$$  OO  ooooXXXXXXXXXXoooo  OO  $$$$$$$$$$$$$$$$",
"$$$$$$$$$$$$$$$$$$  OO  oooooooooooooooooo  OO  $$$$$$$$$$$$$$$$",
"$$$$$$$$$$$$$$$$$$  OO  oooooooooooooooooo  OO  $$$$$$$$$$$$$$$$",
"$$$$$$$$$$$$$$$$$$            oooooo            $$$$$$$$$$$$$$$$",
"$$$$$$$$$$$$$$$$$$            oooooo            $$$$$$$$$$$$$$$$",
"$$$$$$$$$$$$$$$$$$  @@@@  ..          ..  @@@@  $$$$$$$$$$$$$$$$",
"$$$$$$$$$$$$$$$$$$  @@@@  ..          ..  @@@@  $$$$$$$$$$$$$$$$",
"$$$$$$$$$$$$$$$$$$  ##@@  ++............  ##@@  $$$$$$$$$$$$$$$$",
"$$$$$$$$$$$$$$$$$$  ##@@  ++............  ##@@  $$$$$$$$$$$$$$$$",
"$$$$$$$$$$$$$$$$$$  ##@@  ++++++++++++..  ##@@  $$$$$$$$$$$$$$$$",
"$$$$$$$$$$$$$$$$$$  ##@@  ++++++++++++..  ##@@  $$$$$$$$$$$$$$$$",
"$$$$$$$$$$$$$$$$                                  $$$$$$$$$$$$$$",
"$$$$$$$$$$$$$$$$                                  $$$$$$$$$$$$$$",
"$$$$$$$$$$$$$$$$  ################@@@@@@@@@@@@@@  $$$$$$$$$$$$$$",
"$$$$$$$$$$$$$$$$  ################@@@@@@@@@@@@@@  $$$$$$$$$$$$$$",
"$$$$$$$$$$$$$$$$                                  $$$$$$$$$$$$$$",
"$$$$$$$$$$$$$$$$                                  $$$$$$$$$$$$$$"
};
