/* XPM */
static char *result[] = {
/* columns rows colors chars-per-pixel */
"64 64 6 1 ",
"  c black",
". c #704431",
"X c #945A41",
"o c #BA8E14",
"O c #E5B018",
"+ c #181425",
/* pixels */
"++++++++++++++++++++++++++++++++++++++++++++++++++++++++++++++++",
"++++++++++++++++++++++++++++++++++++++++++++++++++++++++++++++++",
"++++++++++++++++++++++++++++++++++++++++++++++++++++++++++++++++",
"++++++++++++++++++++++++++++++++++++++++++++++++++++++++++++++++",
"++++++++++++++++++++++++++++++++++++++++++++++++++++++++++++++++",
"++++++++++++++++++++++++++++++++++++++++++++++++++++++++++++++++",
"++++++++++++++++++++++++++++++++++++++++++++++++++++++++++++++++",
"++++++++++++++++++++++++++++++++++++++++++++++++++++++++++++++++",
"++++++++++++++++++++++++++++++++++++++++++++++++++++++++++++++++",
"++++++++++++++++++++++++++++++++++++++++++++++++++++++++++++++++",
"++++++++++++++++++++++++++++++++++++++++++++++++++++++++++++++++",
"++++++++++++++++++++++++++++++++++++++++++++++++++++++++++++++++",
"++++++++++++++++++++++++++++++++++++++++++++++++++++++++++++++++",
"++++++++++++++++++++++++++++++++++++++++++++++++++++++++++++++++",
"++++++++++++++++++++++++++++++++++++++++++++++++++++++++++++++++",
"++++++++++++++++++++++++++++++++++++++++++++++++++++++++++++++++",
"++++++++++++++++++++++++++++++++++++++++++++++++++++++++++++++++",
"++++++++++++++++++++++++++++++++++++++++++++++++++++++++++++++++",
"++++++++++++++++++++++++++++++++++++++++++++++++++++++++++++++++",
"++++++++++++++++++++++++++++++++++++++++++++++++++++++++++++++++",
"++++++++++++++++++++++++++++++++++++++++++++++++++++++++++++++++",
"++++++++++++++++++++++++++++++++++++++++++++++++++++++++++++++++",
"++++++++++++++++++++++++++++++++++++++++++++++++++++++++++++++++",
"++++++++++++++++++++++++++++++++++++++++++++++++++++++++++++++++",
"++++++++++++++++++++++++++++++++++++++++++++++++++++++++++++++++",
"++++++++++++++++++++++++++++++++++++++++++++++++++++++++++++++++",
"++++++++++++++++++++++++++++++++++++++++++++++++++++++++++++++++",
"++++++++++++++++++++++++++++++++++++++++++++++++++++++++++++++++",
"++++++++++++++++++++++++++++++++++++++++++++++++++++++++++++++++",
"++++++++++++++++++++++++++++++++++++++++++++++++++++++++++++++++",
"++++++++++++++++++++++++++++++++++++++++++++++++++++++++++++++++",
"++++++++++++++++++++++++++++++++++++++++++++++++++++++++++++++++",
"++++++++++++++++++++++++++++++++++++++++++++++++++++++++++++++++",
"++++++++++++++++++++++++++++++++++++++++++++++++++++++++++++++++",
"++++++++++++++++++++++++++++++++++++++++++++++++++++++++++++++++",
"++++++++++++++++++++++++++++++++++++++++++++++++++++++++++++++++",
"++++++++++++++++++++++++++++++++++++++++++++++++++++++++++++++++",
"++++++++++++++++++++++++++++++++++++++++++++++++++++++++++++++++",
"++++++++++++++++++++    ++++++++++++++++++    ++++++++++++++++++",
"++++++++++++++++++++    ++++++++++++++++++    ++++++++++++++++++",
"++++++++++++++++++  OOoo                  OOoo  ++++++++++++++++",
"++++++++++++++++++  OOoo                  OOoo  ++++++++++++++++",
"++++++++++++++++++  OOoo  XX............  OOoo  ++++++++++++++++",
"++++++++++++++++++  OOoo  XX............  OOoo  ++++++++++++++++",
"++++++++++++++++++  OOoo  ..          ..  OOoo  ++++++++++++++++",
"++++++++++++++++++  OOoo  ..          ..  OOoo  ++++++++++++++++",
"++++++++++++++++              oooooo              ++++++++++++++",
"++++++++++++++++              oooooo              ++++++++++++++",
"++++++++++++++++  OOOOOOOOOOOOOO  oooooooooooooo  ++++++++++++++",
"++++++++++++++++  OOOOOOOOOOOOOO  oooooooooooooo  ++++++++++++++",
"++++++++++++++++              OOOOoo              ++++++++++++++",
"++++++++++++++++              OOOOoo              ++++++++++++++",
"++++++++++++++++++  oooo  ..          ..  oooo  ++++++++++++++++",
"++++++++++++++++++  oooo  ..          ..  oooo  ++++++++++++++++",
"++++++++++++++++++  OOoo  XX............  OOoo  ++++++++++++++++",
"++++++++++++++++++  OOoo  XX............  OOoo  ++++++++++++++++",
"++++++++++++++++++  OOoo  XXXXXXXXXXXX..  OOoo  ++++++++++++++++",
"++++++++++++++++++  OOoo  XXXXXXXXXXXX..  OOoo  ++++++++++++++++",
"++++++++++++++++                                  ++++++++++++++",
"++++++++++++++++                                  ++++++++++++++",
"++++++++++++++++  OOOOOOOOOOOOOOOOoooooooooooooo  ++++++++++++++",
"++++++++++++++++  OOOOOOOOOOOOOOOOoooooooooooooo  ++++++++++++++",
"++++++++++++++++                                  ++++++++++++++",
"++++++++++++++++                                  ++++++++++++++"
};
