/* XPM */
static char *result[] = {
/* columns rows colors chars-per-pixel */
"64 64 5 1 ",
"  c #0E0715",
". c #262C46",
"X c #3B4A6C",
"o c #526081",
"O c #9AA8C5",
/* pixels */
"                                                                ",
"                                                                ",
"                                                                ",
"                                                                ",
"                                                                ",
"...........       .............................................O",
"............     .............................................OO",
".............   ..............................................OO",
".............  ..............................................OOO",
".............  .............................................OOOO",
".............  .............................................OOOO",
"....X...X....  .......................XXX.....XXXXXXXXXXXX.XXOOO",
"XXXXXXXXXXX..  .XXXXXX.....XXX....XXXXXXXXXXXXXXXXXXXXXXXXXXXXOO",
"XXXXXXXXXXXX.  XXXXXXXXXXXXXXXXXXXXXXXXXXXXXXXXXXXXXXXXXXXXXXXOO",
"XXXXXXXXXXXXX  XXXXXXXXXXXXXXXXXXXXXXXXXXXXXXXXXXXXXXXXXXXXXXXOO",
"XXXXXXXXXXXXX  XXXXXXXXXXXXXXXXXXXXXXXXXXXXXXXXXXXXXXXXXXXXXXXOO",
"XXXXXXXXXXXXX  XXXXXXXXXXXXXXXXXXXXXXXXXXXXXXXXXXXXXXXXXXXXXXOOO",
"XXXXXXXXXXXXX  XXXXXXXXXXXXXXXXXXXXXXXXXXXXXXXXXXXXXXXXXXXXXXOOO",
"XXXXXXXXXXXXX  XXXXXXXXXXXXXXXXXXXXXXXXXXXXXXXXXXXXXXXXXXXXXXOOO",
"XXXXXXXXXXXXX  XXXXXXoXXXXXoooXXXXXXXXXXXXXXXXXXXXXXXXXXXXXXXOOO",
"XXoXXXXXXXXXo   XXooooooXooooooXXXXoXXXXXXXooooooooooooooooooOOO",
"ooooooooooooo   oooooooooooo ooooooooooooooooooooooooooooooooOOO",
"o ooo oooooo     ooooo oooo   ooooo oooo  oo oooo  oooo oo  ooOO",
"o  o   o oo       ooo   oo      oo              o    oo        O",
"                                                                ",
"                                                                ",
".......................         ..............................OO",
".........................      ...............................OO",
".........................     ...............................OOO",
".........................    .................................OO",
".....XXXXX......XXXXX.....   ...........................XX..X.OO",
"XXXXXXXXXXXXXXXXXXXXXXXXX.   .XXXX..........XXX..XXXXXXXXXXXXXOO",
"XXXXXXXXXXXXXXXXXXXXXXXXXX   XXXXXXXXXXXXXXXXXXXXXXXXXXXXXXXXXOO",
"XXXXXXXXXXXXXXXXXXXXXXXXXX   XXXXXXXXXXXXXXXXXXXXXXXXXXXXXXXXXOO",
"XXXXXXXXXXXXXXXXXXXXXXXXXXX  XXXXXXXXXXXXXXXXXXXXXXXXXXXXXXXXXOO",
"XXXXXXXXXXXXXXXXXXXXXXXXXXX  XXXXXXXXXXXXXXXXXXXXXXXXXXXXXXXXOOO",
"XXXXXXXXXXXXXXXXXXXXXXXXXXX  XXXXXXXXXXXXXXXXXXXXXXXXXXXXXXXXOOO",
"oooXXXXXXXXXXoooXXXXXooooXX  XXXXXXooooXXXXXXXooooXXXXXXoooooOOO",
"ooooooooooooooooooooooooooX  XooooooooooooooooooooooooooooooooOO",
"ooooooooooooooooooooooooooo  oooooooooooooooooooooooooooooooooOO",
"oooooooooooooooooooooooooo   oooooooooooooooooooooooooooooooooOO",
"oooooooooooooooooooooooooo    ooooooooooooooooooooooooooooooooOO",
"oooooooooooooooooooo oooo     ooooooooooooooooooooooooooooooooOO",
"o ooooooooooo oooooo  ooo      ooooooo ooooooo ooooooo  o  oooOO",
"o   ooo        o   o   o       o o  o           o           o OO",
"                                                                ",
"                                                                ",
"...........................     ..............................OO",
"............................   ..............................OOO",
"............................   ...............................OO",
"............................   ...............................OO",
"...........................    X.......................XX....OOO",
"XX.......XXXXX..........X.    XXXXXXXX....XXXXXXXXXXXXXXXXXXXOOO",
"XXXXXXXXXXXXXXXXXXXXXXXXXX   XXXXXXXXXXXXXXXXXXXXXXXXXXXXXXXXXOO",
"XXXXXXXXXXXXXXXXXXXXXXXXXX   XXXXXXXXXXXXXXXXXXXXXXXXXXXXXXXXXOO",
"XXXXXXXXXXXXXXXXXXXXXXXXXX  XXXXXXXXXXXXXXXXXXXXXXXXXXXXXXXXXXOO",
"XXXXXXXXXXXXXXXXXXXXooooXX  oXXXXooXXXoXXXXXXooXXXXXXXoXXXXXXXOO",
"XoooooXXXooooooooooooooooo  ooooooooooooooooooooooooooooooooooOO",
"oooooooooooooooooooooooooo  oooooooooooooooooooooooooooooooooOOO",
"oooooooooooooooooooooooooo  oooooooooooooooooooooooooooooooooOOO",
"oooooooooooooooooooooooooo  oooooooooooooooooooooooooooooooooOOO",
"OOOOooooOOOOOOOooooOOOoooo  ooooOOOOOOooooooooOOOOOOooooooOOOOOO",
"OOOOOOOOOOOOOOOOOOOOOOOOOO  OOOOOOOOOOOOOOOOOOOOOOOOOOOOOOOOOOOO",
"OOOOOOOOOOOOOOOOOOOOOOOOOO  OOOOOOOOOOOOOOOOOOOOOOOOOOOOOOOOOOOO"
};
