/* XPM */
static char *result[] = {
/* columns rows colors chars-per-pixel */
"64 64 5 1 ",
"  c #0E0715",
". c #262C46",
"X c #3B4A6C",
"o c #526081",
"O c #9AA8C5",
/* pixels */
"                                                                ",
"                                                                ",
"                                                                ",
"                                                                ",
"                                                                ",
"O.............................................       ...........",
"OO.............................................     ............",
"OO..............................................   .............",
"OOO..............................................  .............",
"OOOO.............................................  .............",
"OOOO.............................................  .............",
"OOOXX.XXXXXXXXXXXX.....XXX.......................  ....X...X....",
"OOXXXXXXXXXXXXXXXXXXXXXXXXXXXX....XXX.....XXXXXX.  ..XXXXXXXXXXX",
"OOXXXXXXXXXXXXXXXXXXXXXXXXXXXXXXXXXXXXXXXXXXXXXXX  .XXXXXXXXXXXX",
"OOXXXXXXXXXXXXXXXXXXXXXXXXXXXXXXXXXXXXXXXXXXXXXXX  XXXXXXXXXXXXX",
"OOXXXXXXXXXXXXXXXXXXXXXXXXXXXXXXXXXXXXXXXXXXXXXXX  XXXXXXXXXXXXX",
"OOOXXXXXXXXXXXXXXXXXXXXXXXXXXXXXXXXXXXXXXXXXXXXXX  XXXXXXXXXXXXX",
"OOOXXXXXXXXXXXXXXXXXXXXXXXXXXXXXXXXXXXXXXXXXXXXXX  XXXXXXXXXXXXX",
"OOOXXXXXXXXXXXXXXXXXXXXXXXXXXXXXXXXXXXXXXXXXXXXXX  XXXXXXXXXXXXX",
"OOOXXXXXXXXXXXXXXXXXXXXXXXXXXXXXXXoooXXXXXoXXXXXX  XXXXXXXXXXXXX",
"OOOooooooooooooooooooXXXXXXXoXXXXooooooXooooooXX   oXXXXXXXXXoXX",
"OOOoooooooooooooooooooooooooooooooo oooooooooooo   ooooooooooooo",
"OOoo  oo oooo  oooo oo  oooo ooooo   oooo ooooo     oooooo ooo o",
"O        oo    o              oo      oo   ooo       oo o   o  o",
"                                                                ",
"                                                                ",
"OO..............................         .......................",
"OO...............................      .........................",
"OOO...............................     .........................",
"OO.................................    .........................",
"OO.X..XX...........................   .....XXXXX......XXXXX.....",
"OOXXXXXXXXXXXXX..XXX..........XXXX.   .XXXXXXXXXXXXXXXXXXXXXXXXX",
"OOXXXXXXXXXXXXXXXXXXXXXXXXXXXXXXXXX   XXXXXXXXXXXXXXXXXXXXXXXXXX",
"OOXXXXXXXXXXXXXXXXXXXXXXXXXXXXXXXXX   XXXXXXXXXXXXXXXXXXXXXXXXXX",
"OOXXXXXXXXXXXXXXXXXXXXXXXXXXXXXXXXX  XXXXXXXXXXXXXXXXXXXXXXXXXXX",
"OOOXXXXXXXXXXXXXXXXXXXXXXXXXXXXXXXX  XXXXXXXXXXXXXXXXXXXXXXXXXXX",
"OOOXXXXXXXXXXXXXXXXXXXXXXXXXXXXXXXX  XXXXXXXXXXXXXXXXXXXXXXXXXXX",
"OOOoooooXXXXXXooooXXXXXXXooooXXXXXX  XXooooXXXXXoooXXXXXXXXXXooo",
"OOooooooooooooooooooooooooooooooooX  Xoooooooooooooooooooooooooo",
"OOooooooooooooooooooooooooooooooooo  ooooooooooooooooooooooooooo",
"OOooooooooooooooooooooooooooooooooo   oooooooooooooooooooooooooo",
"OOoooooooooooooooooooooooooooooooo    oooooooooooooooooooooooooo",
"OOoooooooooooooooooooooooooooooooo     oooo oooooooooooooooooooo",
"OOooo  o  ooooooo ooooooo ooooooo      ooo  oooooo ooooooooooo o",
"OO o           o           o  o o       o   o   o        ooo   o",
"                                                                ",
"                                                                ",
"OO..............................     ...........................",
"OOO..............................   ............................",
"OO...............................   ............................",
"OO...............................   ............................",
"OOO....XX.......................X    ...........................",
"OOOXXXXXXXXXXXXXXXXXXX....XXXXXXXX    .X..........XXXXX.......XX",
"OOXXXXXXXXXXXXXXXXXXXXXXXXXXXXXXXXX   XXXXXXXXXXXXXXXXXXXXXXXXXX",
"OOXXXXXXXXXXXXXXXXXXXXXXXXXXXXXXXXX   XXXXXXXXXXXXXXXXXXXXXXXXXX",
"OOXXXXXXXXXXXXXXXXXXXXXXXXXXXXXXXXXX  XXXXXXXXXXXXXXXXXXXXXXXXXX",
"OOXXXXXXXoXXXXXXXooXXXXXXoXXXooXXXXo  XXooooXXXXXXXXXXXXXXXXXXXX",
"OOoooooooooooooooooooooooooooooooooo  oooooooooooooooooXXXoooooX",
"OOOooooooooooooooooooooooooooooooooo  oooooooooooooooooooooooooo",
"OOOooooooooooooooooooooooooooooooooo  oooooooooooooooooooooooooo",
"OOOooooooooooooooooooooooooooooooooo  oooooooooooooooooooooooooo",
"OOOOOOooooooOOOOOOooooooooOOOOOOoooo  ooooOOOooooOOOOOOOooooOOOO",
"OOOOOOOOOOOOOOOOOOOOOOOOOOOOOOOOOOOO  OOOOOOOOOOOOOOOOOOOOOOOOOO",
"OOOOOOOOOOOOOOOOOOOOOOOOOOOOOOOOOOOO  OOOOOOOOOOOOOOOOOOOOOOOOOO"
};
