/* XPM */
static char *result[] = {
/* columns rows colors chars-per-pixel */
"64 64 5 1 ",
"  c black",
". c #3E2012",
"X c #653219",
"o c #8B4423",
"O c None",
/* pixels */
"OOOOOOOOOOOOOOOO ..X OOOOOOOOOOOOOOOOOOOOOO X.. OOOOOOOOOOOOOOOO",
"OOOOOOOOOOOOOOOO ..X OOOOOOOOOOOOOOOOOOOOOO X.. OOOOOOOOOOOOOOOO",
"OOOOOOOOOOOOOOOO ..X OOOOOOOOOOOOOOOOOOOOOO X.. OOOOOOOOOOOOOOOO",
"OOOOOOOOOOOOOOOO ..X OOOOOOOOOOOOOOOOOOOOOO X.. OOOOOOOOOOOOOOOO",
"OOOOOOOOOOOOOOOO ..X OOOOOOOOOOOOOOOOOOOOOO X.. OOOOOOOOOOOOOOOO",
"OOOOOOOOOOOOOOOO ..X                        X.. OOOOOOOOOOOOOOOO",
"OOOOOOOOOOOOOOOO ..X ...................... X.. OOOOOOOOOOOOOOOO",
"OOOOOOOOOOOOOOOO ..X ooooooooooooooooooooo. X.. OOOOOOOOOOOOOOOO",
"OOOOOOOOOOOOOOOO ..X ooooooooooooooooooooo. X.. OOOOOOOOOOOOOOOO",
"OOOOOOOOOOOOOOOO ..X ooooooooooooooooooooo. X.. OOOOOOOOOOOOOOOO",
"OOOOOOOOOOOOOOOO ..X                        X.. OOOOOOOOOOOOOOOO",
"OOOOOOOOOOOOOOOO ..X XXXXXXXXXXXXXXXXXXXXXX X.. OOOOOOOOOOOOOOOO",
"OOOOOOOOOOOOOOOO ..X                        X.. OOOOOOOOOOOOOOOO",
"OOOOOOOOOOOOOOOO ..X OOOOOOOOOOOOOOOOOOOOOO X.. OOOOOOOOOOOOOOOO",
"OOOOOOOOOOOOOOOO ..X OOOOOOOOOOOOOOOOOOOOOO X.. OOOOOOOOOOOOOOOO",
"OOOOOOOOOOOOOOOO ..X OOOOOOOOOOOOOOOOOOOOOO X.. OOOOOOOOOOOOOOOO",
"OOOOOOOOOOOOOOOO ..X OOOOOOOOOOOOOOOOOOOOOO X.. OOOOOOOOOOOOOOOO",
"OOOOOOOOOOOOOOOO ..X OOOOOOOOOOOOOOOOOOOOOO X.. OOOOOOOOOOOOOOOO",
"OOOOOOOOOOOOOOOO ..X OOOOOOOOOOOOOOOOOOOOOO X.. OOOOOOOOOOOOOOOO",
"OOOOOOOOOOOOOOOO ..X OOOOOOOOOOOOOOOOOOOOOO X.. OOOOOOOOOOOOOOOO",
"OOOOOOOOOOOOOOOO ..X OOOOOOOOOOOOOOOOOOOOOO X.. OOOOOOOOOOOOOOOO",
"OOOOOOOOOOOOOOOO ..X                        X.. OOOOOOOOOOOOOOOO",
"OOOOOOOOOOOOOOOO ..X ...................... X.. OOOOOOOOOOOOOOOO",
"OOOOOOOOOOOOOOOO ..X ooooooooooooooooooooo. X.. OOOOOOOOOOOOOOOO",
"OOOOOOOOOOOOOOOO ..X ooooooooooooooooooooo. X.. OOOOOOOOOOOOOOOO",
"OOOOOOOOOOOOOOOO ..X ooooooooooooooooooooo. X.. OOOOOOOOOOOOOOOO",
"OOOOOOOOOOOOOOOO ..X                        X.. OOOOOOOOOOOOOOOO",
"OOOOOOOOOOOOOOOO ..X XXXXXXXXXXXXXXXXXXXXXX X.. OOOOOOOOOOOOOOOO",
"OOOOOOOOOOOOOOOO ..X                        X.. OOOOOOOOOOOOOOOO",
"OOOOOOOOOOOOOOOO ..X OOOOOOOOOOOOOOOOOOOOOO X.. OOOOOOOOOOOOOOOO",
"OOOOOOOOOOOOOOOO ..X OOOOOOOOOOOOOOOOOOOOOO X.. OOOOOOOOOOOOOOOO",
"OOOOOOOOOOOOOOOO ..X OOOOOOOOOOOOOOOOOOOOOO X.. OOOOOOOOOOOOOOOO",
"OOOOOOOOOOOOOOOO ..X OOOOOOOOOOOOOOOOOOOOOO X.. OOOOOOOOOOOOOOOO",
"OOOOOOOOOOOOOOOO ..X OOOOOOOOOOOOOOOOOOOOOO X.. OOOOOOOOOOOOOOOO",
"OOOOOOOOOOOOOOOO ..X OOOOOOOOOOOOOOOOOOOOOO X.. OOOOOOOOOOOOOOOO",
"OOOOOOOOOOOOOOOO ..X OOOOOOOOOOOOOOOOOOOOOO X.. OOOOOOOOOOOOOOOO",
"OOOOOOOOOOOOOOOO ..X OOOOOOOOOOOOOOOOOOOOOO X.. OOOOOOOOOOOOOOOO",
"OOOOOOOOOOOOOOOO ..X                        X.. OOOOOOOOOOOOOOOO",
"OOOOOOOOOOOOOOOO ..X ...................... X.. OOOOOOOOOOOOOOOO",
"OOOOOOOOOOOOOOOO ..X ooooooooooooooooooooo. X.. OOOOOOOOOOOOOOOO",
"OOOOOOOOOOOOOOOO ..X ooooooooooooooooooooo. X.. OOOOOOOOOOOOOOOO",
"OOOOOOOOOOOOOOOO ..X ooooooooooooooooooooo. X.. OOOOOOOOOOOOOOOO",
"OOOOOOOOOOOOOOOO ..X                        X.. OOOOOOOOOOOOOOOO",
"OOOOOOOOOOOOOOOO ..X XXXXXXXXXXXXXXXXXXXXXX X.. OOOOOOOOOOOOOOOO",
"OOOOOOOOOOOOOOOO ..X                        X.. OOOOOOOOOOOOOOOO",
"OOOOOOOOOOOOOOOO ..X OOOOOOOOOOOOOOOOOOOOOO X.. OOOOOOOOOOOOOOOO",
"OOOOOOOOOOOOOOOO ..X OOOOOOOOOOOOOOOOOOOOOO X.. OOOOOOOOOOOOOOOO",
"OOOOOOOOOOOOOOOO ..X OOOOOOOOOOOOOOOOOOOOOO X.. OOOOOOOOOOOOOOOO",
"OOOOOOOOOOOOOOOO ..X OOOOOOOOOOOOOOOOOOOOOO X.. OOOOOOOOOOOOOOOO",
"OOOOOOOOOOOOOOOO ..X OOOOOOOOOOOOOOOOOOOOOO X.. OOOOOOOOOOOOOOOO",
"OOOOOOOOOOOOOOOO ..X OOOOOOOOOOOOOOOOOOOOOO X.. OOOOOOOOOOOOOOOO",
"OOOOOOOOOOOOOOOO ..X OOOOOOOOOOOOOOOOOOOOOO X.. OOOOOOOOOOOOOOOO",
"OOOOOOOOOOOOOOOO ..X OOOOOOOOOOOOOOOOOOOOOO X.. OOOOOOOOOOOOOOOO",
"OOOOOOOOOOOOOOOO ..X                        X.. OOOOOOOOOOOOOOOO",
"OOOOOOOOOOOOOOOO ..X ...................... X.. OOOOOOOOOOOOOOOO",
"OOOOOOOOOOOOOOOO ..X ooooooooooooooooooooo. X.. OOOOOOOOOOOOOOOO",
"OOOOOOOOOOOOOOOO ..X ooooooooooooooooooooo. X.. OOOOOOOOOOOOOOOO",
"OOOOOOOOOOOOOOOO ..X ooooooooooooooooooooo. X.. OOOOOOOOOOOOOOOO",
"OOOOOOOOOOOOOOOO ..X                        X.. OOOOOOOOOOOOOOOO",
"OOOOOOOOOOOOOOOO ..X XXXXXXXXXXXXXXXXXXXXXX X.. OOOOOOOOOOOOOOOO",
"OOOOOOOOOOOOOOOO ..X                        X.. OOOOOOOOOOOOOOOO",
"OOOOOOOOOOOOOOOO ..X OOOOOOOOOOOOOOOOOOOOOO X.. OOOOOOOOOOOOOOOO",
"OOOOOOOOOOOOOOOO ..X OOOOOOOOOOOOOOOOOOOOOO X.. OOOOOOOOOOOOOOOO",
"OOOOOOOOOOOOOOOO ..X OOOOOOOOOOOOOOOOOOOOOO X.. OOOOOOOOOOOOOOOO"
};
