/* XPM */
static char *result[] = {
/* columns rows colors chars-per-pixel */
"64 64 8 1 ",
"  c black",
". c #0E0715",
"X c #181C2B",
"o c #262C46",
"O c #3B4A6C",
"+ c #526081",
"@ c #9AA8C5",
"# c #181425",
/* pixels */
"################################################################",
"################################################################",
"############################........############################",
"##########################..@@@@@@@@..##########################",
"########################..@@++++++++@@..########################",
"#######################.@.@++++++++++@.@.#######################",
"####################...@o.@O++++++++O@.o@...####################",
"##################..@@.@oo.@O++++++O@.oo@.@@..##################",
"#################..oo@.@OOo.@@@@@@@@.oOO@.@oo..#################",
"################.+OOo@. @OOo        oOO@ .@oOO+.################",
"###############.++OOo@.+ @@.OOOOOOOO.@@ +.@oOO++.###############",
"##############..++OOo@.+o   ++++++++   o+.@oOO++..##############",
"#############.@.++OOo@.o OOO++++++++OOO o.@oOO++.@.#############",
"############.O@.++OOo@.o O++++++++++++O o.@oOO++.@O.############",
"###########.+O@.++O@@o.o O++++++++++++O o.o@@O++.@O+.###########",
"###########.+O@.+@@OOoo. O+    ++    +O .ooOO@@+.@O+.###########",
"##########..+O@.@++OOOo..O+    ++    +O..oOOO++@.@O+..##########",
"#########...+O@.+++OOOoo O+    ++    +O ooOOO+++.@O+...#########",
"#########.@.+O@@.+++OOOo O+ .OO++OO. +O oOOO+++.@@O+.@.#########",
"########.O@.+@OO@.+++OOoo.OOO++..++OOO.ooOO+++.@OO@+.@O.########",
"########.O@.@+OOO@.+++OOo..OO+....+OO..oOO+++.@OOO+@.@O.########",
"########.O@.+++OOO@.+++O. ...OOOOOO... .O+++.@OOO+++.@O.########",
"########.O@.+++++OO@.+..     O++++O     ..+.@OO+++++.@O.########",
"#######.+O@@..++++OO@.       O.OO.O       .@OO++++..@@O+.#######",
"#######.+@Ooo@..+++O.        O.OO.O        .O+++..@ooO@+.#######",
"#######.+@OOOoo@..+.                        .+..@ooOOO@+.#######",
"#######.@+OOOOOoo@.                          .@ooOOOOO+@.#######",
"#######.@+++OOOOO.                            .OOOOO+++@.#######",
"#######.@+++++OO..                            ..OO+++++@.#######",
"#######...++++++.                              .++++++...#######",
"#######.@@....+.                                .+....@@.#######",
"#######.oo@@@@..                                ..@@@@oo.#######",
"#######.OOOOOO@.                                .@OOOOOO.#######",
"#######.O+++OOO.                                .OOO+++O.#######",
"#######.+++++++.                                .+++++++.#######",
"#######.+++++++.                                .+++++++.#######",
"#######.........                                .........#######",
"#######.ooooooo.                                .ooooooo.#######",
"#######.oOooOoO.                                .OoOooOo.#######",
"#######.OOOOOOO.                                .OOOOOOO.#######",
"#######.++OOO+O.                                .O+OOO++.#######",
"#######.+++++++.                                .+++++++.#######",
"#######.+++++++.                                .+++++++.#######",
"#######.........                                .........#######",
"#######.ooooooo.                                .ooooooo.#######",
"#######.OooOOoO.                                .OoOOooO.#######",
"#######.OOOOOOO.                                .OOOOOOO.#######",
"#######.O+++O++.                                .++O+++O.#######",
"#######.+++++++.                                .+++++++.#######",
"#######.+++++++.                                .+++++++.#######",
"#######.........                                .........#######",
"#######.ooooooo.                                .ooooooo.#######",
"#######.OOOOOOO.                                .OOOOOOO.#######",
"#######.OOOOOOO.                                .OOOOOOO.#######",
"#######.OO++O++.XXXXXXXXXXXXXXXXXXXXXXXXXXXXXXXX.++O++OO.#######",
"#######.+++++++.XXXXXXXXXXXXXXXXXXXXXXXXXXXXXXXX.+++++++.#######",
"#######.........oooooooooooooooooooooooooooooooo.........#######",
"#######.ooooooo.oooooooooooooooooooooooooooooooo.ooooooo.#######",
"#######.ooooOOO.OOOOOOOOOOOOOOOOOOOOOOOOOOOOOOOO.OOOoooo.#######",
"#######.OOOOOOO.OOOOOOOOOOOOOOOOOOOOOOOOOOOOOOOO.OOOOOOO.#######",
"#######.O+OO++O.++++++++++++++++++++++++++++++++.O++OO+O.#######",
"#######.+++++++.++++++++++++++++++++++++++++++++.+++++++.#######",
"#######.+++++++.@@@@@@@@@@@@@@@@@@@@@@@@@@@@@@@@.+++++++.#######",
"#######.........@@@@@@@@@@@@@@@@@@@@@@@@@@@@@@@@.........#######"
};
