/* XPM */
static char *result[] = {
/* columns rows colors chars-per-pixel */
"64 64 11 1 ",
"  c black",
". c #0E0715",
"X c #3E2012",
"o c #181C2B",
"O c #653219",
"+ c #262C46",
"@ c #3B4A6C",
"# c #8B4423",
"$ c #526081",
"% c #9AA8C5",
"& c #181425",
/* pixels */
"&&&&&&&&&&&&&&&&&&&&&&&&&&&&&&&&&&&&&&&&&&&&&&&&&&&&&&&&&&&&&&&&",
"&&&&&&&&&&&&&&&&&&&&&&&&&&&&&&&&&&&&&&&&&&&&&&&&&&&&&&&&&&&&&&&&",
"&&&&&&&&&&&&&&&&&&&&&&&&&&&&........&&&&&&&&&&&&&&&&&&&&&&&&&&&&",
"&&&&&&&&&&&&&&&&&&&&&&&&&&..%%%%%%%%..&&&&&&&&&&&&&&&&&&&&&&&&&&",
"&&&&&&&&&&&&&&&&&&&&&&&&..%%$$$$$$$$%%..&&&&&&&&&&&&&&&&&&&&&&&&",
"&&&&&&&&&&&&&&&&&&&&&&&.%.%$$$$$$$$$$%.%.&&&&&&&&&&&&&&&&&&&&&&&",
"&&&&&&&&&&&&&&&&&&&&...%+.%@$$$$$$$$@%.+%...&&&&&&&&&&&&&&&&&&&&",
"&&&&&&&&&&&&&&&&&&..%%.%++.%@$$$$$$@%.++%.%%..&&&&&&&&&&&&&&&&&&",
"&&&&&&&&&&&&&&&&&..++%.%@@+.%%%%%%%%.+@@%.%++..&&&&&&&&&&&&&&&&&",
"&&&&&&&&&&&&&&&&.$@@+%. %@@+        +@@% .%+@@$.&&&&&&&&&&&&&&&&",
"&&&&&&&&&&&&&&&.$$@@+%.$ %%.@@@@@@@@.%% $.%+@@$$.&&&&&&&&&&&&&&&",
"&&&&&&&&&&&&&&..$$@@+%.$+   $$$$$$$$   +$.%+@@$$..&&&&&&&&&&&&&&",
"&&&&&&&&&&&&&.%.$$@@+%.+ @@@$$$$$$$$@@@ +.%+@@$$.%.&&&&&&&&&&&&&",
"&&&&&&&&&&&&.@%.$$@@+%.+ @$$$$$$$$$$$$@ +.%+@@$$.%@.&&&&&&&&&&&&",
"&&&&&&&&&&&.$@%.$$@%%+.+ @$$$$$$$$$$$$@ +.+%%@$$.%@$.&&&&&&&&&&&",
"&&&&&&&&&&&.$@%.$%%@@++. @$    $$    $@ .++@@%%$.%@$.&&&&&&&&&&&",
"&&&&&&&&&&..$@%.%$$@@@+..@$    $$    $@..+@@@$$%.%@$..&&&&&&&&&&",
"&&&&&&&&&...$@%.$$$@@@++ @$    $$    $@ ++@@@$$$.%@$...&&&&&&&&&",
"&&&&&&&&&.%.$@%%.$$$@@@+ @$ .@@$$@@. $@ +@@@$$$.%%@$.%.&&&&&&&&&",
"&&&&&&&&.@%.$%@@%.$$$@@++.@@@$$..$$@@@.++@@$$$.%@@%$.%@.&&&&&&&&",
"&&&&&&&&.@%.%$@@@%.$$$@@+..@@$....$@@..+@@$$$.%@@@$%.%@.&&&&&&&&",
"&&&&&&&&.@%.$$$@@@%.$$$@. ...@@@@@@... .@$$$.%@@@$$$.%@.&&&&&&&&",
"&&&&&&&&.@%.$$$$$@@%.$..X    @$$$$@    X..$.%@@$$$$$.%@.&&&&&&&&",
"&&&&&&&.$@%%..$$$$@@%.XXX    @.@@.@    XXX.%@@$$$$..%%@$.&&&&&&&",
"&&&&&&&.$%@++%..$$$@.XX#X    @.@@.@    X#XX.@$$$..%++@%$.&&&&&&&",
"&&&&&&&.$%@@@++%..$.XXO#X              X#OXX.$..%++@@@%$.&&&&&&&",
"&&&&&&&.%$@@@@@++%.XXOO#X              X#OOXX.%++@@@@@$%.&&&&&&&",
"&&&&&&&.%$$$@@@@@.XXOOO#X              X#OOOXX.@@@@@$$$%.&&&&&&&",
"&&&&&&&.%$$$$$@@..X#OOO#X              X#OOO#X..@@$$$$$%.&&&&&&&",
"&&&&&&&...$$$$$$.XX#OOO#X              X#OOO#XX.$$$$$$...&&&&&&&",
"&&&&&&&.%%....$.XXO#.OO.X              X.OO.#OXX.$....%%.&&&&&&&",
"&&&&&&&.++%%%%....O.%..%                %..%.O....%%%%++.&&&&&&&",
"&&&&&&&.@@@@@@%.%%..$@@@                @@@$..%%.%@@@@@@.&&&&&&&",
"&&&&&&&.@$$$@@@.+$$$$...X              X...$$$$+.@@@$$$@.&&&&&&&",
"&&&&&&&.$$$$$$$.+$@.@.XXX              XXX.@.@$+.$$$$$$$.&&&&&&&",
"&&&&&&&.$$$$$$$.+$@..XO.X              X.OX..@$+.$$$$$$$.&&&&&&&",
"&&&&&&&.........+@.XXO.@.              .@.OXX.@+.........&&&&&&&",
"&&&&&&&.+++++++...X#O.+$$              $$+.O#X...+++++++.&&&&&&&",
"&&&&&&&.+@++@+@.XXO#O.+@$              $@+.O#OXX.@+@++@+.&&&&&&&",
"&&&&&&&.@@@@@@@.XXO#OO..%              %..OO#OXX.@@@@@@@.&&&&&&&",
"&&&&&&&.$$@@@$@.XXO#OOO.%              %.OOO#OXX.@$@@@$$.&&&&&&&",
"&&&&&&&.$$$$$$$.XXO#OO..$              $..OO#OXX.$$$$$$$.&&&&&&&",
"&&&&&&&.$$$$$$$.XXO#O.+@$              $@+.O#OXX.$$$$$$$.&&&&&&&",
"&&&&&&&.........XXO#O.+..              ..+.O#OXX.........&&&&&&&",
"&&&&&&&.+++++++.XXO#O...X              X...O#OXX.+++++++.&&&&&&&",
"&&&&&&&.@++@@+@.XXO#OOO#X              X#OOO#OXX.@+@@++@.&&&&&&&",
"&&&&&&&.@@@@@@@.XXO#OOO#X              X#OOO#OXX.@@@@@@@.&&&&&&&",
"&&&&&&&.@$$$@$$.XXO#OOO#X              X#OOO#OXX.$$@$$$@.&&&&&&&",
"&&&&&&&.$$$$$$$.XXO#OOO#X              X#OOO#OXX.$$$$$$$.&&&&&&&",
"&&&&&&&.$$$$$$$.XXO#.O..X              X..O.#OXX.$$$$$$$.&&&&&&&",
"&&&&&&&...........O.%.%%                %%.%.O...........&&&&&&&",
"&&&&&&&.+++++++.%%..$@@@                @@@$..%%.+++++++.&&&&&&&",
"&&&&&&&.@@@@@@@.+$$$$...X              X...$$$$+.@@@@@@@.&&&&&&&",
"&&&&&&&.@@@@@@@.+$@.@.XXX              XXX.@.@$+.@@@@@@@.&&&&&&&",
"&&&&&&&.@@$$@$$.+$@..XO..              ..OX..@$+.$$@$$@@.&&&&&&&",
"&&&&&&&.$$$$$$$.+@.XXO... oooooooooooo ...OXX.@+.$$$$$$$.&&&&&&&",
"&&&&&&&...........X#O...++++++++++++++++...O#X...........&&&&&&&",
"&&&&&&&.+++++++.XXO#...++++++++++++++++++...#OXX.+++++++.&&&&&&&",
"&&&&&&&.++++@@@.XXO...@@@@@@@@@@@@@@@@@@@@...OXX.@@@++++.&&&&&&&",
"&&&&&&&.@@@@@@@.XX...@@@@@@@@@@@@@@@@@@@@@@...XX.@@@@@@@.&&&&&&&",
"&&&&&&&.@$@@$$@.X...$$$$$$$$$$$$$$$$$$$$$$$$...X.@$$@@$@.&&&&&&&",
"&&&&&&&.$$$$$$$....$$$$$$$$$$$$$$$$$$$$$$$$$$....$$$$$$$.&&&&&&&",
"&&&&&&&.$$$$$$$..%%%%%%%%%%%%%%%%%%%%%%%%%%%%%%..$$$$$$$.&&&&&&&",
"&&&&&&&.........%%%%%%%%%%%%%%%%%%%%%%%%%%%%%%%%.........&&&&&&&"
};
