/* XPM */
static char *result[] = {
/* columns rows colors chars-per-pixel */
"64 64 11 1 ",
"  c black",
". c #0E0715",
"X c #3E2012",
"o c #181C2B",
"O c #653219",
"+ c #262C46",
"@ c #3B4A6C",
"# c #8B4423",
"$ c #526081",
"% c #9AA8C5",
"& c #181425",
/* pixels */
"&&&&&&&&&&&&&&&&&&&&&&&&&&&&&&&&&&&&&&&&&&&&&&&&&&&&&&&&&&&&&&&&",
"&&&&&&&&&&&&&&&&&&&&&&&&&&&&&&&&&&&&&&&&&&&&&&&&&&&&&&&&&&&&&&&&",
"&&&&&&&&&&&&&&&&&&&&&&&&&&&&........&&&&&&&&&&&&&&&&&&&&&&&&&&&&",
"&&&&&&&&&&&&&&&&&&&&&&&&&&..%%%%%%%%..&&&&&&&&&&&&&&&&&&&&&&&&&&",
"&&&&&&&&&&&&&&&&&&&&&&&&..%%$$$$$$$$%%..&&&&&&&&&&&&&&&&&&&&&&&&",
"&&&&&&&&&&&&&&&&&&&&&&&.%.%$$$$$$$$$$%.%.&&&&&&&&&&&&&&&&&&&&&&&",
"&&&&&&&&&&&&&&&&&&&&...%+.%@$$$$$$$$@%.+%...&&&&&&&&&&&&&&&&&&&&",
"&&&&&&&&&&&&&&&&&&..%%.%++.%@$$$$$$@%.++%.%%..&&&&&&&&&&&&&&&&&&",
"&&&&&&&&&&&&&&&&&..++%.%@@+.%%%%%%%%.+@@%.%++..&&&&&&&&&&&&&&&&&",
"&&&&&&&&&&&&&&&&.$@@+%. %@@+        +@@% .%+@@$.&&&&&&&&&&&&&&&&",
"&&&&&&&&&&&&&&&.$$@@+%.$ %%.@@@@@@@@.%% $.%+@@$$.&&&&&&&&&&&&&&&",
"&&&&&&&&&&&&&&..$$@@+%.$+   $$$$$$$$   +$.%+@@$$..&&&&&&&&&&&&&&",
"&&&&&&&&&&&&&.%.$$@@+%.+ @@@$$$$$$$$@@@ +.%+@@$$.%.&&&&&&&&&&&&&",
"&&&&&&&&&&&&.@%.$$@@+%.+ @$$$$$$$$$$$$@ +.%+@@$$.%@.&&&&&&&&&&&&",
"&&&&&&&&&&&.$@%.$$@%%+.+ @$$$$$$$$$$$$@ +.+%%@$$.%@$.&&&&&&&&&&&",
"&&&&&&&&&&&.$@%.$%%@@++. @$    $$    $@ .++@@%%$.%@$.&&&&&&&&&&&",
"&&&&&&&&&&..$@%.%$$@@@+..@$    $$    $@..+@@@$$%.%@$..&&&&&&&&&&",
"&&&&&&&&&...$@%.$$$@@@++ @$    $$    $@ ++@@@$$$.%@$...&&&&&&&&&",
"&&&&&&&&&.%.$@%%.$$$@@@+ @$ .@@$$@@. $@ +@@@$$$.%%@$.%.&&&&&&&&&",
"&&&&&&&&.@%.$%@@%.$$$@@++.@@@$$..$$@@@.++@@$$$.%@@%$.%@.&&&&&&&&",
"&&&&&&&&.@%.%$@@@%.$$$@@+..@@$....$@@..+@@$$$.%@@@$%.%@.&&&&&&&&",
"&&&&&&&&.@%.$$$@@@%.$$$@. ...@@@@@@... .@$$$.%@@@$$$.%@.&&&&&&&&",
"&&&&&&&&.@%.$$$$$@@%.$..     @$$$$@     ..$.%@@$$$$$.%@.&&&&&&&&",
"&&&&&&&.$@%%..$$$$@@%.       @.@@.@       .%@@$$$$..%%@$.&&&&&&&",
"&&&&&&&.$%@++%..$$$@..       @.@@.@       ..@$$$..%++@%$.&&&&&&&",
"&&&&&&&.$%@@@++%..$.X.                    .X.$..%++@@@%$.&&&&&&&",
"&&&&&&&.%$@@@@@++%.XX.                    .XX.%++@@@@@$%.&&&&&&&",
"&&&&&&&.%$$$@@@@@.XXO.                    .OXX.@@@@@$$$%.&&&&&&&",
"&&&&&&&.%$$$$$@@..X#O.                    .O#X..@@$$$$$%.&&&&&&&",
"&&&&&&&...$$$$$$.XO#O.                    .O#OX.$$$$$$...&&&&&&&",
"&&&&&&&.%%....$.XX.#..                    ..#.XX.$....%%.&&&&&&&",
"&&&&&&&.++%%%%....%.%.                    .%.%....%%%%++.&&&&&&&",
"&&&&&&&.@@@@@@%.%.$@..                    ..@$.%.%@@@@@@.&&&&&&&",
"&&&&&&&.@$$$@@@.+$@.O.                    .O.@$+.@@@$$$@.&&&&&&&",
"&&&&&&&.$$$$$$$.+$@.O.                    .O.@$+.$$$$$$$.&&&&&&&",
"&&&&&&&.$$$$$$$.+@.#O.                    .O#.@+.$$$$$$$.&&&&&&&",
"&&&&&&&.........+.O#.                      .#O.+.........&&&&&&&",
"&&&&&&&.+++++++..XO.+.                    .+.OX..+++++++.&&&&&&&",
"&&&&&&&.+@++@+@.XXO.+@.                  .@+.OXX.@+@++@+.&&&&&&&",
"&&&&&&&.@@@@@@@.XXO..$.                  .$..OXX.@@@@@@@.&&&&&&&",
"&&&&&&&.$$@@@$@.XXOX.%.                  .%.XOXX.@$@@@$$.&&&&&&&",
"&&&&&&&.$$$$$$$.XXOX.$.                  .$.XOXX.$$$$$$$.&&&&&&&",
"&&&&&&&.$$$$$$$.XXO.+@.                  .@+.OXX.$$$$$$$.&&&&&&&",
"&&&&&&&.........XXO.+.                    .+.OXX.........&&&&&&&",
"&&&&&&&.+++++++.XXO#.                      .#OXX.+++++++.&&&&&&&",
"&&&&&&&.@++@@+@.XXO#O                      O#OXX.@+@@++@.&&&&&&&",
"&&&&&&&.@@@@@@@.XXO#O                      O#OXX.@@@@@@@.&&&&&&&",
"&&&&&&&.@$$$@$$.XXO#O.                    .O#OXX.$$@$$$@.&&&&&&&",
"&&&&&&&.$$$$$$$.XXO#O.                    .O#OXX.$$$$$$$.&&&&&&&",
"&&&&&&&.$$$$$$$.XX.#..                    ..#.XX.$$$$$$$.&&&&&&&",
"&&&&&&&...........%.@.                    .@.%...........&&&&&&&",
"&&&&&&&.+++++++.%.$@..                    ..@$.%.+++++++.&&&&&&&",
"&&&&&&&.@@@@@@@.+$@.O.                    .O.@$+.@@@@@@@.&&&&&&&",
"&&&&&&&.@@@@@@@.+$@.O.                    .O.@$+.@@@@@@@.&&&&&&&",
"&&&&&&&.@@$$@$$.+@.#O.oooooooooooooooooooo.O#.@+.$$@$$@@.&&&&&&&",
"&&&&&&&.$$$$$$$.+.O#X.oooooooooooooooooooo.X#O.+.$$$$$$$.&&&&&&&",
"&&&&&&&..........XX#O.++++++++++++++++++++.O#XX..........&&&&&&&",
"&&&&&&&.+++++++.XXO#..++++++++++++++++++++..#OXX.+++++++.&&&&&&&",
"&&&&&&&.++++@@@.XXO...@@@@@@@@@@@@@@@@@@@@...OXX.@@@++++.&&&&&&&",
"&&&&&&&.@@@@@@@.XX...@@@@@@@@@@@@@@@@@@@@@@...XX.@@@@@@@.&&&&&&&",
"&&&&&&&.@$@@$$@.X...$$$$$$$$$$$$$$$$$$$$$$$$...X.@$$@@$@.&&&&&&&",
"&&&&&&&.$$$$$$$....$$$$$$$$$$$$$$$$$$$$$$$$$$....$$$$$$$.&&&&&&&",
"&&&&&&&.$$$$$$$...%%%%%%%%%%%%%%%%%%%%%%%%%%%%...$$$$$$$.&&&&&&&",
"&&&&&&&..........%%%%%%%%%%%%%%%%%%%%%%%%%%%%%%..........&&&&&&&"
};
