/* XPM */
static char *result[] = {
/* columns rows colors chars-per-pixel */
"64 64 10 1 ",
"  c black",
". c #0E0715",
"X c #3E2012",
"o c #653219",
"O c #262C46",
"+ c #3B4A6C",
"@ c #8B4423",
"# c #526081",
"$ c #9AA8C5",
"% c #181425",
/* pixels */
"%%%%%%%%%%%%%%%%%%%%%%%%%%%%%%%%%%%%%%%%%%%%%%%%%%%%%%%%%%%%%%%%",
"%%%%%%%%%%%%%%%%%%%%%%%%%%%%%%%%%%%%%%%%%%%%%%%%%%%%%%%%%%%%%%%%",
"%%%%%%%%%%%%%%%%%%%%%%%%%%%%........%%%%%%%%%%%%%%%%%%%%%%%%%%%%",
"%%%%%%%%%%%%%%%%%%%%%%%%%%..$$$$$$$$..%%%%%%%%%%%%%%%%%%%%%%%%%%",
"%%%%%%%%%%%%%%%%%%%%%%%%..$$########$$..%%%%%%%%%%%%%%%%%%%%%%%%",
"%%%%%%%%%%%%%%%%%%%%%%%.$.$##########$.$.%%%%%%%%%%%%%%%%%%%%%%%",
"%%%%%%%%%%%%%%%%%%%%...$O.$+########+$.O$...%%%%%%%%%%%%%%%%%%%%",
"%%%%%%%%%%%%%%%%%%..$$.$OO.$+######+$.OO$.$$..%%%%%%%%%%%%%%%%%%",
"%%%%%%%%%%%%%%%%%..OO$.$++O.$$$$$$$$.O++$.$OO..%%%%%%%%%%%%%%%%%",
"%%%%%%%%%%%%%%%%.#++O$. $++O        O++$ .$O++#.%%%%%%%%%%%%%%%%",
"%%%%%%%%%%%%%%%.##++O$.# $$.++++++++.$$ #.$O++##.%%%%%%%%%%%%%%%",
"%%%%%%%%%%%%%%..##++O$.#O   ########   O#.$O++##..%%%%%%%%%%%%%%",
"%%%%%%%%%%%%%.$.##++O$.O +++########+++ O.$O++##.$.%%%%%%%%%%%%%",
"%%%%%%%%%%%%.+$.##++O$.O +############+ O.$O++##.$+.%%%%%%%%%%%%",
"%%%%%%%%%%%.#+$.##+$$O.O +############+ O.O$$+##.$+#.%%%%%%%%%%%",
"%%%%%%%%%%%.#+$.#$$++OO. +#    ##    #+ .OO++$$#.$+#.%%%%%%%%%%%",
"%%%%%%%%%%..#+$.$##+++O..+#    ##    #+..O+++##$.$+#..%%%%%%%%%%",
"%%%%%%%%%...#+$.###+++OO +#    ##    #+ OO+++###.$+#...%%%%%%%%%",
"%%%%%%%%%.$.#+$$.###+++O +# .++##++. #+ O+++###.$$+#.$.%%%%%%%%%",
"%%%%%%%%.+$.#$++$.###++OO.+++##..##+++.OO++###.$++$#.$+.%%%%%%%%",
"%%%%%%%%.+$.$#+++$.###++O..++#....#++..O++###.$+++#$.$+.%%%%%%%%",
"%%%%%%%%.+$.###+++$.###+.X...++++++...X.+###.$+++###.$+.%%%%%%%%",
"%%%%%%%%.+$.#####++$.#..XXXX +####+ XXXX..#.$++#####.$+.%%%%%%%%",
"%%%%%%%.#+$$..####++$.XXXoXX +.++.+ XXoXXX.$++####..$$+#.%%%%%%%",
"%%%%%%%.#$+OO$..###+.XXX@oXX +.++.+ XXo@XXX.+###..$OO+$#.%%%%%%%",
"%%%%%%%.#$+++OO$..#.XXoo@oXX        XXo@ooXX.#..$OO+++$#.%%%%%%%",
"%%%%%%%.$#+++++OO$.XXooo@oXXXXX..XXXXXo@oooXX.$OO+++++#$.%%%%%%%",
"%%%%%%%.$###+++++.XX@ooo@oooXXX..XXXooo@ooo@XX.+++++###$.%%%%%%%",
"%%%%%%%.$#####++..XX@ooo@ooo@oo..oo@ooo@ooo@XX..++#####$.%%%%%%%",
"%%%%%%%...######.XXo@ooo@ooo@oo..oo@ooo@ooo@oXX.######...%%%%%%%",
"%%%%%%%.$$....#.XXoo@ooo@ooo@oo..oo@ooo@ooo@ooXX.#....$$.%%%%%%%",
"%%%%%%%.OO$$$$....oo@.oo@ooo@oo..oo@ooo@oo.@oo....$$$$OO.%%%%%%%",
"%%%%%%%.++++++$.O$.o.$.o@.oo@oo..oo@oo.@o.$.o.$O.$++++++.%%%%%%%",
"%%%%%%%.+###+++.O$..$#...$..@oo..oo@..$...#$..$O.+++###+.%%%%%%%",
"%%%%%%%.#######.O###########.oo..oo.###########O.#######.%%%%%%%",
"%%%%%%%.#######.O#++##+++#++.oo..oo.++#+++##++#O.#######.%%%%%%%",
"%%%%%%%.........O#..O#...O..Xoo..ooX..O...#O..#O.........%%%%%%%",
"%%%%%%%.OOOOOOO.OO.X.O.XX.XX@oo..oo@XX.XX.O.X.OO.OOOOOOO.%%%%%%%",
"%%%%%%%.O+OO+O+...Xo@.Xo@ooo@oo..oo@ooo@oX.@oX...+O+OO+O.%%%%%%%",
"%%%%%%%.+++++++.XXoo@ooo@ooo@oo..oo@ooo@ooo@ooXX.+++++++.%%%%%%%",
"%%%%%%%.##+++#+.XXoo@ooo...o@oo..oo@o...ooo@ooXX.+#+++##.%%%%%%%",
"%%%%%%%.#######.XXoo@oo.+#+.@oo..oo@.+#+.oo@ooXX.#######.%%%%%%%",
"%%%%%%%.#######.XXoo@oo.O#O.@oo..oo@.O#O.oo@ooXX.#######.%%%%%%%",
"%%%%%%%.........XXoo@ooX.$.o@oo..oo@o.$.Xoo@ooXX.........%%%%%%%",
"%%%%%%%.OOOOOOO.XXoo@ooX.$.o@oo..oo@o.$.Xoo@ooXX.OOOOOOO.%%%%%%%",
"%%%%%%%.+OO++O+.XXoo@ooX.#.o@oo..oo@o.#.Xoo@ooXX.+O++OO+.%%%%%%%",
"%%%%%%%.+++++++.XXoo@oo.O#O.@oo..oo@.O#O.oo@ooXX.+++++++.%%%%%%%",
"%%%%%%%.+###+##.XXoo@oo.+#+.@oo..oo@.+#+.oo@ooXX.##+###+.%%%%%%%",
"%%%%%%%.#######.XXoo@ooo...o@oo..oo@o...ooo@ooXX.#######.%%%%%%%",
"%%%%%%%.#######.XXoo@ooo@ooo@oo..oo@ooo@ooo@ooXX.#######.%%%%%%%",
"%%%%%%%...........oo@.oo@ooo@oo..oo@ooo@oo.@oo...........%%%%%%%",
"%%%%%%%.OOOOOOO.O$.o.$.o@.oo@oo..oo@oo.@o.$.o.$O.OOOOOOO.%%%%%%%",
"%%%%%%%.+++++++.O$..$#...$..@oo..oo@..$...#$..$O.+++++++.%%%%%%%",
"%%%%%%%.+++++++.O###########.oo..oo.###########O.+++++++.%%%%%%%",
"%%%%%%%.++##+##.O#++##+++#++.oo..oo.++#+++##++#O.##+##++.%%%%%%%",
"%%%%%%%.#######.O#..+#...+..Xoo..ooX..+...#+..#O.#######.%%%%%%%",
"%%%%%%%.........++.X.+.XX.XX@oo..oo@XX.XX.+.X.++.........%%%%%%%",
"%%%%%%%.OOOOOOO...Xo@.Xo@Xoo@oo..oo@ooX@oX.@oX...OOOOOOO.%%%%%%%",
"%%%%%%%.OOOO+++.XXoo@ooo@ooo@oo..oo@ooo@ooo@ooXX.+++OOOO.%%%%%%%",
"%%%%%%%.+++++++.XXoo@ooo@oo@@oo..oo@@oo@ooo@ooXX.+++++++.%%%%%%%",
"%%%%%%%.+#++##+.XX@o@o@o@o@o@oo..oo@o@o@o@o@o@XX.+##++#+.%%%%%%%",
"%%%%%%%.#######..................................#######.%%%%%%%",
"%%%%%%%.#######..$$$$$$$$$$$$$$$$$$$$$$$$$$$$$$..#######.%%%%%%%",
"%%%%%%%.........$$$$$$$$$$$$$$$$$$$$$$$$$$$$$$$$.........%%%%%%%"
};
