/* XPM */
static char *result[] = {
/* columns rows colors chars-per-pixel */
"64 64 12 1 ",
"  c black",
". c #704431",
"X c gray27",
"o c gray37",
"O c #945A41",
"+ c #BA8E14",
"@ c #E5B018",
"# c #0297D6",
"$ c #01A8F4",
"% c #83C9E8",
"& c #ACD6E8",
"* c #181425",
/* pixels */
"****************************************************************",
"****************************************************************",
"****************************************************************",
"****************************************************************",
"****************************************************************",
"****************************************************************",
"****************************************************************",
"****************************************************************",
"****************************************************************",
"****************************************************************",
"****************************************************************",
"****************************************************************",
"****************************************************************",
"****************************************************************",
"****************************************************************",
"****************************************************************",
"****************************************************************",
"****************************************************************",
"****************************************************************",
"****************************************************************",
"****************************************************************",
"****************************************************************",
"****************************************************************",
"****************************************************************",
"************************                  **********************",
"*********************** %$$$$$$$%%$$&&&&&& *********************",
"********************** ##%$$$$$%##%$$$&&&&& ********************",
"********************* #$$#%$$$%#$$#%$$$&&&&# *******************",
"******************** #$$$$#%$%#$$$$#%$%#&&&$# ******************",
"******************** #$$$$$#%#$$$$$$#%#$&&&$# ******************",
"******************** %%%%%%%%%%%%%%%%%%&&&%%% ******************",
"********************* ######%########%&&&### *******************",
"********************** #$$$#%#$$$$$$#&&&$$# ********************",
"*********************** #$$$#%#$$$$#&&&$$# *********************",
"************************ #$$#%#$$$$&&&$$# **********************",
"************************* #$$#%#$$&&&$$# ***********************",
"******************         #$#%#$&&&#$#         ****************",
"******************          ##%#&&&&##          ****************",
"****************    ++++++++ ##%&&&## ++++++++    **************",
"****************    +++++++++ #%&&%# +++++++++    **************",
"****************    ++         #&&#         ++    **************",
"****************    ++          &&          ++    **************",
"******************  ++  XXXXXXXX  XXXXXXXX  ++  ****************",
"******************  ++  XXXXXXXXXXXXXXXXXX  ++  ****************",
"******************  ++  oooooooooooooooooo  ++  ****************",
"******************  ++  oooooooooooooooooo  ++  ****************",
"******************  ++  oooooooooooooooooo  ++  ****************",
"******************  ++  oooooooooooooooooo  ++  ****************",
"******************  ++  oooooooooooooooooo  ++  ****************",
"******************  ++  oooooooooooooooooo  ++  ****************",
"******************            oooooo            ****************",
"******************            oooooo            ****************",
"******************  ++++  ..          ..  ++++  ****************",
"******************  ++++  ..          ..  ++++  ****************",
"******************  @@++  OO............  @@++  ****************",
"******************  @@++  OO............  @@++  ****************",
"******************  @@++  OOOOOOOOOOOO..  @@++  ****************",
"******************  @@++  OOOOOOOOOOOO..  @@++  ****************",
"****************                                  **************",
"****************                                  **************",
"****************  @@@@@@@@@@@@@@@@++++++++++++++  **************",
"****************  @@@@@@@@@@@@@@@@++++++++++++++  **************",
"****************                                  **************",
"****************                                  **************"
};
