/* XPM */
static char *result[] = {
/* columns rows colors chars-per-pixel */
"64 64 13 1 ",
"  c black",
". c #6F2A23",
"X c #706E66",
"o c #8A342C",
"O c #A23D26",
"+ c #806E42",
"@ c #9C8651",
"# c #B9A160",
"$ c #949186",
"% c #CCAF97",
"& c #EDCBAF",
"* c #CFCCC0",
"= c #181425",
/* pixels */
"================================================================",
"================================================================",
"================================================================",
"================================================================",
"================================================================",
"================================================================",
"================================================================",
"================================================================",
"================================================================",
"=========================  =====================================",
"==========================   =  ================================",
"===========================   =   ==============================",
"=========================== = ==   =============================",
"=========================== *  = * =============================",
"===========================      *  ============================",
"========================   **$$  ** ============================",
"=====================   ***     =*X    =========================",
"====================  **   $$  **$X **  ========================",
"===================  *   $$*  *$$$X   *  =======================",
"==================  *  $$**  $$$$XX $  *  ======================",
"================== *  $**** $$$$XX  $$  * ======================",
"=================  * $*****  $$XX  $**$ *  =====================",
"================= *  $******  XX  $$***  * =====================",
"================= * $********    ******$ * =====================",
"================  * $******************* *  ====================",
"================                            ====================",
"================ ************************** ====================",
"================ $$$$$$$$$$$$$$$$$$$$$$$$$$ ====================",
"================                            ====================",
"================ $ %%  %%%%%% @@ @@@@@@@@@@ ====================",
"================ * %&  &&&&&& #@ ###+###### ====================",
"================ * %&  &&&&&& #@ ##@+###### ====================",
"================ * %&&&&&&&&& #@ ##@++##### ====================",
"================ ** %&&&&&&& ##@@ ##@+##### ====================",
"================ *  %&&&&&  ####@ ##@++##+# ====================",
"================   %&&    ######@ ###@+##+# ====================",
"==================    ##########@ ###@++#+# ====================",
"=================  #########+#@@@@ @@@@+@+# ====================",
"================= #########+@@@       @+@+# ====================",
"================= ########+@@@  $$$$$  +@+# ====================",
"================= #+#####+@@@  $$***$$  @+# ====================",
"================= #+#####+@@  $$*****$$  +# ====================",
"================= #+#####+@@ $$*******$$ +# ====================",
"================= #+@#+##@@@             +# ====================",
"================= #+@#+##@@@@ ......... @+#+ ===================",
"================= @+@#+@#@@@@ ..OOOOOO. @+@+ ===================",
"================= @+@#+@#+@@@ ..OOOOOO. @+@+ ===================",
"================= @+@#+@#+@@  ..OOOOOO. @+@+# ==================",
"================= @+@#+@#+@@ ...OOOOOO.  +@+# ==================",
"================= @+@@+@@+@@ .O.OOOOO.O.  @++# =================",
"=================  +@@+@@+@  .O.oOOOO.O.. @@+# =================",
"==================  @@+@@+  ..O.oOOOO.OO. @@++ =================",
"===================        ..OO.oOOOO.oO.  @@+  ================",
"====================== .....OOO.oOOOO.oO..   ++ ================",
"====================== oOOOOOOO.oOOOO.oOO. =    ================",
"====================== oOOOOOOO.oOOOO.ooOO =====================",
"====================== oOOOO OO.oOOOO.ooOO =====================",
"====================== oOOOO .O.oOOOOOOoOO =====================",
"====================== oOOOO .OOOOOOOOOOOO =====================",
"====================== oOOOO ..OOOOOOOOOOO =====================",
"======================  .OOO  .OOOOOOOO .O =====================",
"======================= .OOOO ..OOOOOOO .O   ===================",
"======================= .....  ........ .... ===================",
"=======================                      ==================="
};
