/* XPM */
static char *result[] = {
/* columns rows colors chars-per-pixel */
"64 64 13 1 ",
"  c black",
". c #6F2A23",
"X c #706E66",
"o c #8A342C",
"O c #A23D26",
"+ c #806E42",
"@ c #9C8651",
"# c #B9A160",
"$ c #949186",
"% c #CCAF97",
"& c #EDCBAF",
"* c #CFCCC0",
"= c #FF181425",
/* pixels */
"================================================================",
"================================================================",
"================================================================",
"================================================================",
"================================================================",
"================================================================",
"================================================================",
"================================================================",
"================================================================",
"================================================================",
"================================================================",
"================= ============================ =================",
"================= ============================ =================",
"=================  ==========      ==========  =================",
"================ X =======   $ $* $   ======= X ================",
"================ X* ====  ***$ $* $***  ==== *X ================",
"================ X**    *****$ $* $*****    **X ================",
"================ XX**** *****$ $* $***** ****XX ================",
"================= X$$$$ *****$ $* $***** $$$$X =================",
"================= XX$$ $*****$ $* $*****$ $$XX =================",
"================== XXX $*****$ $* $*****$ XXX ==================",
"=================== X $******$ $* $******$ X ===================",
"===================  $*******$ $* $*******$  ===================",
"==================  $$$$$$$$$$ $* $$$$$$$$$$  ==================",
"================== $                        $ ==================",
"================== $************************$ ==================",
"================== $$$$$$$$$$$$$$$$$$$$$$$$$$ ==================",
"==================                            ==================",
"================== @ @ %%%  %% $* %%  %%% @ @ ==================",
"================== @ @ &&&  &% $* %&  &&& @ @ ==================",
"================== @ # &&&  &% $* %&  &&& # @ ==================",
"================== @ # &&&&&&% $* %&&&&&& # @ ==================",
"================== @ # &&&&&% $$** %&&&&& # @ ==================",
"================== @ #  &&&&%  $*  %&&&&  # @ ==================",
"================== @ #+@    &%    %&    @+# @ ==================",
"================== @ @##+@+@   @@   @+@+##@ @ ==================",
"================== @  @###+@+@#@@#@+@+###@  @ ==================",
"==================   X @##+@+@#@@#@+@+##@ X   ==================",
"=================  XXX  @#+@##+##+##@+#@  XXX  =================",
"================  $$$XX @#####+##+#####@ XX$$$  ================",
"================ $**$$X @##+##+@#+##+##@ X$$**$ ================",
"===============  ****$X @+#+##+@#+##+#+@ X$****  ===============",
"===============         @+#+#@+@#+@#+#+@         ===============",
"================ ...... @+#+#@+@#+@#+#+@ ...... ================",
"================ .oooo. @+@+#@+@#+@#+@+@ .oooo. ================",
"================ .oOOO. @+@+#@+@#+@#+@+@ .OOOo. ================",
"================ .oOOOO @+@+#@+@#+@#+@+@ .OOOo. ================",
"================ .oOOOO @+@+@@+@#+@@+@+@ OOOOo. ================",
"================ .oOOOO  @@+@@+@#+@@+@@  OOOOo. ================",
"===============  .oOOOOO   @@@+@@+@@@   OOOOOo.  ===============",
"=============== ..oOOO. OO  @@+@@+@@  OO .OOOo.. ===============",
"=============== .ooOOo. OOOO         OOO .oOOoo. ===============",
"=============== .OOOOo. OOOOO..  ..OOOOO .oOOOO. ===============",
"=============== .O.OOo. OOOOOO.  .OOOOOO .oOO.O. ===============",
"=============== .O.OOo. OOOOOO.  .OOOOOO .oOO.O. ===============",
"=============== .O.OOo. OOOOOO.  .OOOOOO .oOO.O. ===============",
"=============== .O.OOo. OO.OOO.  .OOO.OO .oOO.O. ===============",
"==============  .O.O... OO.OOO.  .OOO.OO ...O.O.  ==============",
"============== ..O.O.   OO.OOO.  .OOO.OO   .O.O.. ==============",
"============== .OO.O. OOOO.OOO.  .OOO.OOOO .O.OO. ==============",
"============== .OO.O. OOO..OOO.  .OOO..OOO .O.OO. ==============",
"=============  .O..O. OO...OO.    .OO...OO .O..O.  =============",
"============  ...............      ...............  ============",
"============                                        ============"
};
