/* XPM */
static char *result[] = {
/* columns rows colors chars-per-pixel */
"64 64 11 1 ",
"  c black",
". c #6F2A23",
"X c #706E66",
"o c #8A342C",
"O c #A23D26",
"+ c #806E42",
"@ c #9C8651",
"# c #B9A160",
"$ c #949186",
"% c #CFCCC0",
"& c #181425",
/* pixels */
"&&&&&&&&&&&&&&&&&&&&&&&&&&&&&&&&&&&&&&&&&&&&&&&&&&&&&&&&&&&&&&&&",
"&&&&&&&&&&&&&&&&&&&&&&&&&&&&&&&&&&&&&&&&&&&&&&&&&&&&&&&&&&&&&&&&",
"&&&&&&&&&&&&&&&&&&&&&&&&&&&&&&&&&&&&&&&&&&&&&&&&&&&&&&&&&&&&&&&&",
"&&&&&&&&&&&&&&&&&&&&&&&&&&&&&&&&&&&&&&&&&&&&&&&&&&&&&&&&&&&&&&&&",
"&&&&&&&&&&&&&&&&&&&&&&&&&&&&&&&&&&&&&&&&&&&&&&&&&&&&&&&&&&&&&&&&",
"&&&&&&&&&&&&&&&&&&&&&&&&&&&&&&&&&&&&&&&&&&&&&&&&&&&&&&&&&&&&&&&&",
"&&&&&&&&&&&&&&&&&&&&&&&&&&&&&&&&&&&&&&&&&&&&&&&&&&&&&&&&&&&&&&&&",
"&&&&&&&&&&&&&&&&&&&&&&&&&&&&&&&&&&&&&&&&&&&&&&&&&&&&&&&&&&&&&&&&",
"&&&&&&&&&&&&&&&&&&&&&&&&&&&&&&&&&&&&&&&&&&&&&&&&&&&&&&&&&&&&&&&&",
"&&&&&&&&&&&&&&&&&&&&&&&&&&&&&&&&&&&&&&&&&&&&&&&&&&&&&&&&&&&&&&&&",
"&&&&&&&&&&&&&&&&&&&&&&&&&&&&&&&&&&&&&&&&&&&&&&&&&&&&&&&&&&&&&&&&",
"&&&&&&&&&&&&&&&&& &&&&&&&&&&&&&&&&&&&&&&&&&&&& &&&&&&&&&&&&&&&&&",
"&&&&&&&&&&&&&&&&& &&&&&&&&&&&&&&&&&&&&&&&&&&&& &&&&&&&&&&&&&&&&&",
"&&&&&&&&&&&&&&&&&  &&&&&&&&&&      &&&&&&&&&&  &&&&&&&&&&&&&&&&&",
"&&&&&&&&&&&&&&&& X &&&&&&&   $ $% $   &&&&&&& X &&&&&&&&&&&&&&&&",
"&&&&&&&&&&&&&&&& X% &&&&  %%%$ $% $%%%  &&&& %X &&&&&&&&&&&&&&&&",
"&&&&&&&&&&&&&&&& X%%    %%%%%$ $% $%%%%%    %%X &&&&&&&&&&&&&&&&",
"&&&&&&&&&&&&&&&& XX%%%% %%%%%$ $% $%%%%% %%%%XX &&&&&&&&&&&&&&&&",
"&&&&&&&&&&&&&&&&& X$$$$ %%%%%$ $% $%%%%% $$$$X &&&&&&&&&&&&&&&&&",
"&&&&&&&&&&&&&&&&& XX$$ $%%%%%$ $% $%%%%%$ $$XX &&&&&&&&&&&&&&&&&",
"&&&&&&&&&&&&&&&&&& XXX $%%%%%$ $% $%%%%%$ XXX &&&&&&&&&&&&&&&&&&",
"&&&&&&&&&&&&&&&&&&& X $%%%%%%$ $% $%%%%%%$ X &&&&&&&&&&&&&&&&&&&",
"&&&&&&&&&&&&&&&&&&&  $%%%%%%%$ $% $%%%%%%%$  &&&&&&&&&&&&&&&&&&&",
"&&&&&&&&&&&&&&&&&&  $$$$$$$$$$ $% $$$$$$$$$$  &&&&&&&&&&&&&&&&&&",
"&&&&&&&&&&&&&&&&&& $                        $ &&&&&&&&&&&&&&&&&&",
"&&&&&&&&&&&&&&&&&& $%%%%%%%%%%%%%%%%%%%%%%%%$ &&&&&&&&&&&&&&&&&&",
"&&&&&&&&&&&&&&&&&& $$$$$$$$$$$$$$$$$$$$$$$$$$ &&&&&&&&&&&&&&&&&&",
"&&&&&&&&&&&&&&&&&&                            &&&&&&&&&&&&&&&&&&",
"&&&&&&&&&&&&&&&&&& ++++++++++++++++++++++++++ &&&&&&&&&&&&&&&&&&",
"&&&&&&&&&&&&&&&&&& +########################+ &&&&&&&&&&&&&&&&&&",
"&&&&&&&&&&&&&&&&&& +########################+ &&&&&&&&&&&&&&&&&&",
"&&&&&&&&&&&&&&&&&& +########################+ &&&&&&&&&&&&&&&&&&",
"&&&&&&&&&&&&&&&&&& +##########+##+##########+ &&&&&&&&&&&&&&&&&&",
"&&&&&&&&&&&&&&&&&& +##########+##+##########+ &&&&&&&&&&&&&&&&&&",
"&&&&&&&&&&&&&&&&&& +##########+##+##########+ &&&&&&&&&&&&&&&&&&",
"&&&&&&&&&&&&&&&&&& +##########+##+##########+ &&&&&&&&&&&&&&&&&&",
"&&&&&&&&&&&&&&&&&& +##########+##+##########+ &&&&&&&&&&&&&&&&&&",
"&&&&&&&&&&&&&&&&&& +##########+##+##########+ &&&&&&&&&&&&&&&&&&",
"&&&&&&&&&&&&&&&&&   #######+##+##+##+#######   &&&&&&&&&&&&&&&&&",
"&&&&&&&&&&&&&&&&  X @######+##+##+##+######@ X  &&&&&&&&&&&&&&&&",
"&&&&&&&&&&&&&&&& X$ @######+##+##+##+######@ $X &&&&&&&&&&&&&&&&",
"&&&&&&&&&&&&&&&  %$  ######+#@+##+@#+######  $%  &&&&&&&&&&&&&&&",
"&&&&&&&&&&&&&&&      ######+#@+##+@#+######      &&&&&&&&&&&&&&&",
"&&&&&&&&&&&&&&&& ... +#####+#@+##+@#+#####+ ... &&&&&&&&&&&&&&&&",
"&&&&&&&&&&&&&&&& .o. +####@+#@+##+@#+@####+ .o. &&&&&&&&&&&&&&&&",
"&&&&&&&&&&&&&&&& .o. +#+##@+#@+##+@#+@##+#+ .o. &&&&&&&&&&&&&&&&",
"&&&&&&&&&&&&&&&& .o.  #+##@+#@+##+@#+@##+#  .o. &&&&&&&&&&&&&&&&",
"&&&&&&&&&&&&&&&& .o.. #+@#@+#@+##+@#+@#@+# ..o. &&&&&&&&&&&&&&&&",
"&&&&&&&&&&&&&&&& .oO. #+@#@+#@+##+@#+@#@+# .Oo. &&&&&&&&&&&&&&&&",
"&&&&&&&&&&&&&&&  .oO. @+@#@+#@+##+@#+@#@+@ .Oo.  &&&&&&&&&&&&&&&",
"&&&&&&&&&&&&&&& ..oO. @+@#@+#@+##+@#+@#@+@ .Oo.. &&&&&&&&&&&&&&&",
"&&&&&&&&&&&&&&& .ooO. @+@#@+#@+##+@#+@#@+@ .Ooo. &&&&&&&&&&&&&&&",
"&&&&&&&&&&&&&&& .OOO.   @#@+#@+##+@#+@#@   .OOO. &&&&&&&&&&&&&&&",
"&&&&&&&&&&&&&&& .O.O...                  ...O.O. &&&&&&&&&&&&&&&",
"&&&&&&&&&&&&&&& .O.OOo....................oOO.O. &&&&&&&&&&&&&&&",
"&&&&&&&&&&&&&&& .O.OOo. OOOOOOOOOOOOOOOO .oOO.O. &&&&&&&&&&&&&&&",
"&&&&&&&&&&&&&&& .O.OOo. OO.OOOOOOOOOO.OO .oOO.O. &&&&&&&&&&&&&&&",
"&&&&&&&&&&&&&&  .O.O... OO.OOOOOOOOOO.OO ...O.O.  &&&&&&&&&&&&&&",
"&&&&&&&&&&&&&& ..O.O.   OO.OOOO.O.OOO.OO   .O.O.. &&&&&&&&&&&&&&",
"&&&&&&&&&&&&&& .OO.o. OOOO.OOOo.O.oOO.OOOO .o.OO. &&&&&&&&&&&&&&",
"&&&&&&&&&&&&&& .OO.o. OOOO.oOOo.O.oOo.OOOO .o.OO. &&&&&&&&&&&&&&",
"&&&&&&&&&&&&&  .O..o. OoOO.oOOo.O.oOo.OOoO .o..O.  &&&&&&&&&&&&&",
"&&&&&&&&&&&&  ........OooO.oOOo.O.oOo.OooO........  &&&&&&&&&&&&",
"&&&&&&&&&&&&                                        &&&&&&&&&&&&"
};
