/* XPM */
static char *result[] = {
/* columns rows colors chars-per-pixel */
"64 64 13 1 ",
"  c black",
". c #6F2A23",
"X c #706E66",
"o c #8A342C",
"O c #A23D26",
"+ c #806E42",
"@ c #9C8651",
"# c #B9A160",
"$ c #949186",
"% c #CCAF97",
"& c #EDCBAF",
"* c #CFCCC0",
"= c #00181425",
/* pixels */
"================================================================",
"================================================================",
"================================================================",
"================================================================",
"================================================================",
"================================================================",
"================================================================",
"================================================================",
"================================================================",
"================================================================",
"================================================================",
"=====================================  =========================",
"================================  =   ==========================",
"==============================   =   ===========================",
"=============================   == = ===========================",
"============================= * =  * ===========================",
"============================  *      ===========================",
"============================ **  $$**   ========================",
"=========================    X*=     ***   =====================",
"========================  ** X$**  $$   **  ====================",
"=======================  *   X$$$*  *$$   *  ===================",
"======================  *  $ XX$$$$  **$$  *  ==================",
"====================== *  $$  XX$$$$ ****$  * ==================",
"=====================  * $**$  XX$$  *****$ *  =================",
"===================== *  ***$$  XX  ******$  * =================",
"===================== * $******    ********$ * =================",
"====================  * *******************$ *  ================",
"====================                            ================",
"==================== ************************** ================",
"==================== $$$$$$$$$$$$$$$$$$$$$$$$$$ ================",
"====================                            ================",
"==================== @@@@@@@@@@ @@ %%%%%%%%%% $ ================",
"==================== ######+### @# &&&&&   &% * ================",
"==================== ######+@## @# &&&&&&&&&% * ================",
"==================== #####++@## @# &&&&&&&&&% * ================",
"==================== #####+@## @@## &&&&&&&% ** ================",
"==================== #+##++@## @####  &&&&&%  * ================",
"==================== #+##+@### @######    &&%   ================",
"==================== #+#++@### @##########    ==================",
"==================== #+@+@@@@ @@@@#+#########  =================",
"==================== #+@+@       @@@+######### =================",
"==================== #+@+  $$$$$  @@@+######## =================",
"==================== #+@  $$***$$  @@@+#####+# =================",
"==================== #+  $$*****$$  @@+#####+# =================",
"==================== #+ $$*******$$ @@+#####+# =================",
"==================== #+             @@@##+#@+# =================",
"=================== +#+@ ......... @@@@##+#@+# =================",
"=================== +@+@ .OOOOOO.. @@@@#@+#@+@ =================",
"=================== +@+@ .OOOOOO.. @@@+#@+#@+@ =================",
"================== #+@+@ .OOOOOO..  @@+#@+#@+@ =================",
"================== #+@+  .OOOOOO... @@+#@+#@+@ =================",
"================= #++@  .O.OOOOO.O. @@+@@+@@+@ =================",
"================= #+@@ ..O.OOOOo.O.  @+@@+@@+  =================",
"================= ++@@ .OO.OOOOo.O..  +@@+@@  ==================",
"================= +@@  .Oo.OOOOo.OO..        ===================",
"=================  @@ ..Oo.OOOOo.OOO..... ======================",
"==================  @ .OOo.OOOOo.OOOOOOOo ======================",
"===================   OOoo.OOOOo.OOOOOOOo ======================",
"====================  OOoo.OOOOo.OO OOOOo ======================",
"===================== OOoOOOOOOo.O. OOOOo ======================",
"===================   OOOOOOOOOOOO. OOOOo ======================",
"=================== ...OOOOOOOOOO.. OOOOo ======================",
"=================== .... .........  ....  ======================",
"===================                      ======================="
};
