/* XPM */
static char *result[] = {
/* columns rows colors chars-per-pixel */
"64 64 4 1 ",
"  c black",
". c #D72409",
"X c white",
"o c #181425",
/* pixels */
"oooooooooooooooooooooooooooooooooooooooooooooooooooooooooooooooo",
"oooooooooooooooooooooooooooooooooooooooooooooooooooooooooooooooo",
"oooooooooooooooooooooooooooooooooooooooooooooooooooooooooooooooo",
"oooooooooooooooooooooooooooooooooooooooooooooooooooooooooooooooo",
"oooooooooooooooooooooooooooooooooooooooooooooooooooooooooooooooo",
"oooooooooooooooooooooooooooooooooooooooooooooooooooooooooooooooo",
"oooooooooooooooooooooooooooooooooooooooooooooooooooooooooooooooo",
"oooooooooooooooooooooooooooooooooooooooooooooooooooooooooooooooo",
"oooooooooooooooooooooooooooooooooooooooooooooooooooooooooooooooo",
"oooooooooooooooooooooooooooooooooooooooooooooooooooooooooooooooo",
"oooooooooooooooooooooooooooooooooooooooooooooooooooooooooooooooo",
"oooooooooooooooooooooooooooooooooooooooooooooooooooooooooooooooo",
"oooooooooooooooooooooooooooooooooooooooooooooooooooooooooooooooo",
"oooooooooooooooooooooooooooooooooooooooooooooooooooooooooooooooo",
"oooooooooooooooooooooooooooooooooooooooooooooooooooooooooooooooo",
"oooooooooooooooooooooooooooooooooooooooooooooooooooooooooooooooo",
"oooooooooooooooooooooooooooooooooooooooooooooooooooooooooooooooo",
"oooooooooooooooooooooooooooooooooooooooooooooooooooooooooooooooo",
"oooooooooooooooooooooooooooooooooooooooooooooooooooooooooooooooo",
"oooooooooooooooooooooooooooooooooooooooooooooooooooooooooooooooo",
"oooooooooooooooooooooo        oooooo        oooooooooooooooooooo",
"oooooooooooooooooooooo        oooooo        oooooooooooooooooooo",
"oooooooooooooooooooo  ........  oo  ........  oooooooooooooooooo",
"oooooooooooooooooooo  ........  oo  ........  oooooooooooooooooo",
"oooooooooooooooooo  ....XXXX....  ............  oooooooooooooooo",
"oooooooooooooooooo  ....XXXX....  ............  oooooooooooooooo",
"oooooooooooooooooo  ..XXXX....................  oooooooooooooooo",
"oooooooooooooooooo  ..XXXX....................  oooooooooooooooo",
"oooooooooooooooooo  ..XX......................  oooooooooooooooo",
"oooooooooooooooooo  ..XX......................  oooooooooooooooo",
"oooooooooooooooooo  ..........................  oooooooooooooooo",
"oooooooooooooooooo  ..........................  oooooooooooooooo",
"oooooooooooooooooo  ..........................  oooooooooooooooo",
"oooooooooooooooooo  ..........................  oooooooooooooooo",
"oooooooooooooooooooo  ......................  oooooooooooooooooo",
"oooooooooooooooooooo  ......................  oooooooooooooooooo",
"oooooooooooooooooooooo  ..................  oooooooooooooooooooo",
"oooooooooooooooooooooo  ..................  oooooooooooooooooooo",
"oooooooooooooooooooooooo  ..............  oooooooooooooooooooooo",
"oooooooooooooooooooooooo  ..............  oooooooooooooooooooooo",
"oooooooooooooooooooooooooo  ..........  oooooooooooooooooooooooo",
"oooooooooooooooooooooooooo  ..........  oooooooooooooooooooooooo",
"oooooooooooooooooooooooooooo  ......  oooooooooooooooooooooooooo",
"oooooooooooooooooooooooooooo  ......  oooooooooooooooooooooooooo",
"oooooooooooooooooooooooooooooo  ..  oooooooooooooooooooooooooooo",
"oooooooooooooooooooooooooooooo  ..  oooooooooooooooooooooooooooo",
"oooooooooooooooooooooooooooooooo  oooooooooooooooooooooooooooooo",
"oooooooooooooooooooooooooooooooo  oooooooooooooooooooooooooooooo",
"oooooooooooooooooooooooooooooooooooooooooooooooooooooooooooooooo",
"oooooooooooooooooooooooooooooooooooooooooooooooooooooooooooooooo",
"oooooooooooooooooooooooooooooooooooooooooooooooooooooooooooooooo",
"oooooooooooooooooooooooooooooooooooooooooooooooooooooooooooooooo",
"oooooooooooooooooooooooooooooooooooooooooooooooooooooooooooooooo",
"oooooooooooooooooooooooooooooooooooooooooooooooooooooooooooooooo",
"oooooooooooooooooooooooooooooooooooooooooooooooooooooooooooooooo",
"oooooooooooooooooooooooooooooooooooooooooooooooooooooooooooooooo",
"oooooooooooooooooooooooooooooooooooooooooooooooooooooooooooooooo",
"oooooooooooooooooooooooooooooooooooooooooooooooooooooooooooooooo",
"oooooooooooooooooooooooooooooooooooooooooooooooooooooooooooooooo",
"oooooooooooooooooooooooooooooooooooooooooooooooooooooooooooooooo",
"oooooooooooooooooooooooooooooooooooooooooooooooooooooooooooooooo",
"oooooooooooooooooooooooooooooooooooooooooooooooooooooooooooooooo",
"oooooooooooooooooooooooooooooooooooooooooooooooooooooooooooooooo",
"oooooooooooooooooooooooooooooooooooooooooooooooooooooooooooooooo"
};
