/* XPM */
static char *result[] = {
/* columns rows colors chars-per-pixel */
"64 64 8 1 ",
"  c black",
". c #704431",
"X c gray27",
"o c #87670F",
"O c #945A41",
"+ c #BA8E14",
"@ c #E5B018",
"# c #181425",
/* pixels */
"################################################################",
"################################################################",
"################################################################",
"################################################################",
"################################################################",
"################################################################",
"################################################################",
"################################################################",
"################################################################",
"################################################################",
"################################################################",
"################################################################",
"################################################################",
"################################################################",
"################################################################",
"################################################################",
"################################################################",
"################################################################",
"################################################################",
"################################################################",
"################################################################",
"################################################################",
"################################################################",
"################################################################",
"################################################################",
"################################################################",
"################################################################",
"################################################################",
"################################################################",
"################################################################",
"################################################################",
"################################################################",
"################################################################",
"################################################################",
"################################################################",
"################################################################",
"####################    ##################    ##################",
"####################    ##################    ##################",
"##################  ++++                  ++++  ################",
"##################  ++++                  ++++  ################",
"##################  @@++  ..          ..  @@++  ################",
"##################  @@++  ..          ..  @@++  ################",
"################              ++++++              ##############",
"################              ++++++              ##############",
"################  @@@@@@@@@@@@@@  ++++++++++++++  ##############",
"################  @@@@@@@@@@@@@@  ++++++++++++++  ##############",
"################              @@@@++              ##############",
"################              @@@@++              ##############",
"##################  oo  XXXXXX      XXXXXX  oo  ################",
"##################  oo  XXXXXX      XXXXXX  oo  ################",
"##################            XXXXXX            ################",
"##################            XXXXXX            ################",
"##################  ++++  ..          ..  ++++  ################",
"##################  ++++  ..          ..  ++++  ################",
"##################  @@++  OO............  @@++  ################",
"##################  @@++  OO............  @@++  ################",
"##################  @@++  OOOOOOOOOOOO..  @@++  ################",
"##################  @@++  OOOOOOOOOOOO..  @@++  ################",
"################                                  ##############",
"################                                  ##############",
"################  @@@@@@@@@@@@@@@@++++++++++++++  ##############",
"################  @@@@@@@@@@@@@@@@++++++++++++++  ##############",
"################                                  ##############",
"################                                  ##############"
};
