/* XPM */
static char *result[] = {
/* columns rows colors chars-per-pixel */
"64 64 6 1 ",
"  c black",
". c #ED8C01",
"X c #FEA911",
"o c #FFBA1F",
"O c #FED469",
"+ c #181425",
/* pixels */
"++++++++++++++++++++++++++++++++++++++++++++++++++++++++++++++++",
"++++++++++++++++++++++++++++++++++++++++++++++++++++++++++++++++",
"++++++++++++++++++++++++++++++++++++++++++++++++++++++++++++++++",
"++++++++++++++++++++++++++++++++++++++++++++++++++++++++++++++++",
"++++++++++++++++++++++++++++++++++++++++++++++++++++++++++++++++",
"++++++++++++++++++++++++++++++++++++++++++++++++++++++++++++++++",
"++++++++++++++++++++++++++++++++++++++++++++++++++++++++++++++++",
"++++++++++++++++++++++++++++++++++++++++++++++++++++++++++++++++",
"++++++++++++++++++++++++++++++++++++++++++++++++++++++++++++++++",
"++++++++++++++++++++++++++++++++++++++++++++++++++++++++++++++++",
"++++++++++++++++++++++++++++++++++++++++++++++++++++++++++++++++",
"++++++++++++++++++++++++++++++++++++++++++++++++++++++++++++++++",
"++++++++++++++++++++++++++++++++++++++++++++++++++++++++++++++++",
"++++++++++++++++++++++++++++++++++++++++++++++++++++++++++++++++",
"++++++++++++++++++++++++++++++++++++++++++++++++++++++++++++++++",
"++++++++++++++++++++++++++++++++++++++++++++++++++++++++++++++++",
"++++++++++++++++++++++++++++++++++++++++++++++++++++++++++++++++",
"++++++++++++++++++++++++++++++++++++++++++++++++++++++++++++++++",
"+++++++++++++++++++++++++++++      +++++++++++++++++++++++++++++",
"++++++++++++++++++++++++++   OOOOOO   ++++++++++++++++++++++++++",
"+++++++++++++++++++++++++ OOOOOooooXXX +++++++++++++++++++++++++",
"+++++++++++++++++++++++  OOoOOooooooooX  +++++++++++++++++++++++",
"++++++++++++++++++++++ OOOoOO......ooooXX ++++++++++++++++++++++",
"+++++++++++++++++++++ OOooO..XXXXXX..ooOOX +++++++++++++++++++++",
"+++++++++++++++++++++ OooO.XXooooooXX.OOOX +++++++++++++++++++++",
"++++++++++++++++++++ OOoO.XooooooooooO.OooX ++++++++++++++++++++",
"+++++++++++++++++++ OOoO.XooooooooooOOO.oooX +++++++++++++++++++",
"+++++++++++++++++++ OoO.XooooooooooOOOoo.ooX +++++++++++++++++++",
"+++++++++++++++++++ OOO.XoooooooooOOOooo.ooX +++++++++++++++++++",
"++++++++++++++++++ OOO.XoooooooooOOOooooo.ooX ++++++++++++++++++",
"++++++++++++++++++ OOo.XooooooooOOOoooooo.oOX ++++++++++++++++++",
"++++++++++++++++++ Ooo.XoooooooOOOooooooo.OOX ++++++++++++++++++",
"++++++++++++++++++ Ooo.XooooooOOOoooooooo.OoX ++++++++++++++++++",
"++++++++++++++++++ Ooo.XoooooOOOooooooooO.ooX ++++++++++++++++++",
"++++++++++++++++++ Ooo.XooooOOOooooooooOO.ooX ++++++++++++++++++",
"+++++++++++++++++++ Ooo.XooOOOooooooooOO.ooO +++++++++++++++++++",
"+++++++++++++++++++ Ooo.XoOOOooooooooOOo.oOX +++++++++++++++++++",
"+++++++++++++++++++ Oooo.OOOooooooooOOo.oOoX +++++++++++++++++++",
"++++++++++++++++++++ OooO.OooooooooOOo.oOoX ++++++++++++++++++++",
"+++++++++++++++++++++ OOOO.oooooooOOo.oOoX +++++++++++++++++++++",
"+++++++++++++++++++++ OOOoo..ooooOO..oOooX +++++++++++++++++++++",
"++++++++++++++++++++++ OXoooo......ooOoXX ++++++++++++++++++++++",
"+++++++++++++++++++++++  XoooooOOoooOoX  +++++++++++++++++++++++",
"+++++++++++++++++++++++++ XXXXOOoooOXX +++++++++++++++++++++++++",
"++++++++++++++++++++++++++   XXXXXX   ++++++++++++++++++++++++++",
"+++++++++++++++++++++++++++++      +++++++++++++++++++++++++++++",
"++++++++++++++++++++++++++++++++++++++++++++++++++++++++++++++++",
"++++++++++++++++++++++++++++++++++++++++++++++++++++++++++++++++",
"++++++++++++++++++++++++++++++++++++++++++++++++++++++++++++++++",
"++++++++++++++++++++++++++++++++++++++++++++++++++++++++++++++++",
"++++++++++++++++++++++++++++++++++++++++++++++++++++++++++++++++",
"++++++++++++++++++++++++++++++++++++++++++++++++++++++++++++++++",
"++++++++++++++++++++++++++++++++++++++++++++++++++++++++++++++++",
"++++++++++++++++++++++++++++++++++++++++++++++++++++++++++++++++",
"++++++++++++++++++++++++++++++++++++++++++++++++++++++++++++++++",
"++++++++++++++++++++++++++++++++++++++++++++++++++++++++++++++++",
"++++++++++++++++++++++++++++++++++++++++++++++++++++++++++++++++",
"++++++++++++++++++++++++++++++++++++++++++++++++++++++++++++++++",
"++++++++++++++++++++++++++++++++++++++++++++++++++++++++++++++++",
"++++++++++++++++++++++++++++++++++++++++++++++++++++++++++++++++",
"++++++++++++++++++++++++++++++++++++++++++++++++++++++++++++++++",
"++++++++++++++++++++++++++++++++++++++++++++++++++++++++++++++++",
"++++++++++++++++++++++++++++++++++++++++++++++++++++++++++++++++",
"++++++++++++++++++++++++++++++++++++++++++++++++++++++++++++++++"
};
