/* XPM */
static char *result[] = {
/* columns rows colors chars-per-pixel */
"64 64 6 1 ",
"  c black",
". c #0297D6",
"X c #01A8F4",
"o c #83C9E8",
"O c #ACD6E8",
"+ c #181425",
/* pixels */
"++++++++++++++++++++++++++++++++++++++++++++++++++++++++++++++++",
"++++++++++++++++++++++++++++++++++++++++++++++++++++++++++++++++",
"++++++++++++++++++++++++++++++++++++++++++++++++++++++++++++++++",
"++++++++++++++++++++++++++++++++++++++++++++++++++++++++++++++++",
"++++++++++++++++++++++++++++++++++++++++++++++++++++++++++++++++",
"++++++++++++++++++++++++++++++++++++++++++++++++++++++++++++++++",
"++++++++++++++++++++++++++++++++++++++++++++++++++++++++++++++++",
"++++++++++++++++++++++++++++++++++++++++++++++++++++++++++++++++",
"++++++++++++++++++++++++++++++++++++++++++++++++++++++++++++++++",
"++++++++++++++++++++++++++++++++++++++++++++++++++++++++++++++++",
"++++++++++++++++++++++++++++++++++++++++++++++++++++++++++++++++",
"++++++++++++++++++++++++++++++++++++++++++++++++++++++++++++++++",
"++++++++++++++++++++++++++++++++++++++++++++++++++++++++++++++++",
"++++++++++++++++++++++++++++++++++++++++++++++++++++++++++++++++",
"++++++++++++++++++++++++++++++++++++++++++++++++++++++++++++++++",
"++++++++++++++++++++++++++++++++++++++++++++++++++++++++++++++++",
"++++++++++++++++++++++++++++++++++++++++++++++++++++++++++++++++",
"++++++++++++++++++++++++++++++++++++++++++++++++++++++++++++++++",
"++++++++++++++++++++++++++++++++++++++++++++++++++++++++++++++++",
"++++++++++++++++++++++++++++++++++++++++++++++++++++++++++++++++",
"++++++++++++++++++++++++++++++++++++++++++++++++++++++++++++++++",
"++++++++++++++++++++++++++++++++++++++++++++++++++++++++++++++++",
"++++++++++++++++++++++++++++++++++++++++++++++++++++++++++++++++",
"++++++++++++++++++++++++++++++++++++++++++++++++++++++++++++++++",
"++++++++++++++++++++++++                  ++++++++++++++++++++++",
"+++++++++++++++++++++++ oXXXXXXXooOOOOOXXo +++++++++++++++++++++",
"++++++++++++++++++++++ ..oXXXXXo..oOOOOOo.. ++++++++++++++++++++",
"+++++++++++++++++++++ .XX.oXXXo.XX.oOOOOOXX. +++++++++++++++++++",
"++++++++++++++++++++ .XXXX.oXo.XXXX.OOOOOXXX. ++++++++++++++++++",
"++++++++++++++++++++ .XXXXX.o.XXXXXXOOOOOXXX. ++++++++++++++++++",
"++++++++++++++++++++ ooooooooooooooOOOOOooooo ++++++++++++++++++",
"+++++++++++++++++++++ ......o......OOOO..... +++++++++++++++++++",
"++++++++++++++++++++++ .XXX.o.XXXXOOOO.XXX. ++++++++++++++++++++",
"+++++++++++++++++++++++ .XXX.o.XXXOOO.XXX. +++++++++++++++++++++",
"++++++++++++++++++++++++ .XX.o.XXOOOo.XX. ++++++++++++++++++++++",
"+++++++++++++++++++++++++ .XX.o.XOOo.XX. +++++++++++++++++++++++",
"++++++++++++++++++++++++++ .X.o.OOOo.X. ++++++++++++++++++++++++",
"+++++++++++++++++++++++++++ ..o.OO.o.. +++++++++++++++++++++++++",
"++++++++++++++++++++++++++++ ..oOOo.. ++++++++++++++++++++++++++",
"+++++++++++++++++++++++++++++ .oOOo. +++++++++++++++++++++++++++",
"++++++++++++++++++++++++++++++ .OO. ++++++++++++++++++++++++++++",
"+++++++++++++++++++++++++++++++ OO +++++++++++++++++++++++++++++",
"++++++++++++++++++++++++++++++++  ++++++++++++++++++++++++++++++",
"++++++++++++++++++++++++++++++++++++++++++++++++++++++++++++++++",
"++++++++++++++++++++++++++++++++++++++++++++++++++++++++++++++++",
"++++++++++++++++++++++++++++++++++++++++++++++++++++++++++++++++",
"++++++++++++++++++++++++++++++++++++++++++++++++++++++++++++++++",
"++++++++++++++++++++++++++++++++++++++++++++++++++++++++++++++++",
"++++++++++++++++++++++++++++++++++++++++++++++++++++++++++++++++",
"++++++++++++++++++++++++++++++++++++++++++++++++++++++++++++++++",
"++++++++++++++++++++++++++++++++++++++++++++++++++++++++++++++++",
"++++++++++++++++++++++++++++++++++++++++++++++++++++++++++++++++",
"++++++++++++++++++++++++++++++++++++++++++++++++++++++++++++++++",
"++++++++++++++++++++++++++++++++++++++++++++++++++++++++++++++++",
"++++++++++++++++++++++++++++++++++++++++++++++++++++++++++++++++",
"++++++++++++++++++++++++++++++++++++++++++++++++++++++++++++++++",
"++++++++++++++++++++++++++++++++++++++++++++++++++++++++++++++++",
"++++++++++++++++++++++++++++++++++++++++++++++++++++++++++++++++",
"++++++++++++++++++++++++++++++++++++++++++++++++++++++++++++++++",
"++++++++++++++++++++++++++++++++++++++++++++++++++++++++++++++++",
"++++++++++++++++++++++++++++++++++++++++++++++++++++++++++++++++",
"++++++++++++++++++++++++++++++++++++++++++++++++++++++++++++++++",
"++++++++++++++++++++++++++++++++++++++++++++++++++++++++++++++++",
"++++++++++++++++++++++++++++++++++++++++++++++++++++++++++++++++"
};
