/* XPM */
static char *result[] = {
/* columns rows colors chars-per-pixel */
"64 64 6 1 ",
"  c black",
". c #0297D6",
"X c #01A8F4",
"o c #83C9E8",
"O c #ACD6E8",
"+ c #181425",
/* pixels */
"++++++++++++++++++++++++++++++++++++++++++++++++++++++++++++++++",
"++++++++++++++++++++++++++++++++++++++++++++++++++++++++++++++++",
"++++++++++++++++++++++++++++++++++++++++++++++++++++++++++++++++",
"++++++++++++++++++++++++++++++++++++++++++++++++++++++++++++++++",
"++++++++++++++++++++++++++++++++++++++++++++++++++++++++++++++++",
"++++++++++++++++++++++++++++++++++++++++++++++++++++++++++++++++",
"++++++++++++++++++++++++++++++++++++++++++++++++++++++++++++++++",
"++++++++++++++++++++++++++++++++++++++++++++++++++++++++++++++++",
"++++++++++++++++++++++++++++++++++++++++++++++++++++++++++++++++",
"++++++++++++++++++++++++++++++++++++++++++++++++++++++++++++++++",
"++++++++++++++++++++++++++++++++++++++++++++++++++++++++++++++++",
"++++++++++++++++++++++++++++++++++++++++++++++++++++++++++++++++",
"++++++++++++++++++++++++++++++++++++++++++++++++++++++++++++++++",
"++++++++++++++++++++++++++++++++++++++++++++++++++++++++++++++++",
"++++++++++++++++++++++++++++++++++++++++++++++++++++++++++++++++",
"++++++++++++++++++++++++++++++++++++++++++++++++++++++++++++++++",
"++++++++++++++++++++++++++++++++++++++++++++++++++++++++++++++++",
"++++++++++++++++++++++++++++++++++++++++++++++++++++++++++++++++",
"++++++++++++++++++++++++++++++++++++++++++++++++++++++++++++++++",
"++++++++++++++++++++++++++++++++++++++++++++++++++++++++++++++++",
"++++++++++++++++++++++++++++++++++++++++++++++++++++++++++++++++",
"++++++++++++++++++++++++++++++++++++++++++++++++++++++++++++++++",
"++++++++++++++++++++++++++++++++++++++++++++++++++++++++++++++++",
"++++++++++++++++++++++++++++++++++++++++++++++++++++++++++++++++",
"++++++++++++++++++++++++                  ++++++++++++++++++++++",
"+++++++++++++++++++++++ oXXXXXXXooXXXXXXXO +++++++++++++++++++++",
"++++++++++++++++++++++ ..oXXXXXo..oXXXXXo.O ++++++++++++++++++++",
"+++++++++++++++++++++ .XX.oXXXo.XX.oXXXo.XOO +++++++++++++++++++",
"++++++++++++++++++++ .XXXX.oXo.XXXX.oXo.XXXOO ++++++++++++++++++",
"++++++++++++++++++++ .XXXXX.o.XXXXXX.o.XXXXOO ++++++++++++++++++",
"++++++++++++++++++++ oooooooooooooooooooooOOO ++++++++++++++++++",
"+++++++++++++++++++++ ......o........o...OOO +++++++++++++++++++",
"++++++++++++++++++++++ .XXX.o.XXXXXX.o.XOOO ++++++++++++++++++++",
"+++++++++++++++++++++++ .XXX.o.XXXX.o.XOOO +++++++++++++++++++++",
"++++++++++++++++++++++++ .XX.o.XXXX.o.OOO ++++++++++++++++++++++",
"+++++++++++++++++++++++++ .XX.o.XX.o.OOO +++++++++++++++++++++++",
"++++++++++++++++++++++++++ .X.o.XX.oOOO ++++++++++++++++++++++++",
"+++++++++++++++++++++++++++ ..o.XX.OOO +++++++++++++++++++++++++",
"++++++++++++++++++++++++++++ ..o..OOO ++++++++++++++++++++++++++",
"+++++++++++++++++++++++++++++ .o.OOO +++++++++++++++++++++++++++",
"++++++++++++++++++++++++++++++ .oOO ++++++++++++++++++++++++++++",
"+++++++++++++++++++++++++++++++ OO +++++++++++++++++++++++++++++",
"++++++++++++++++++++++++++++++++  ++++++++++++++++++++++++++++++",
"++++++++++++++++++++++++++++++++++++++++++++++++++++++++++++++++",
"++++++++++++++++++++++++++++++++++++++++++++++++++++++++++++++++",
"++++++++++++++++++++++++++++++++++++++++++++++++++++++++++++++++",
"++++++++++++++++++++++++++++++++++++++++++++++++++++++++++++++++",
"++++++++++++++++++++++++++++++++++++++++++++++++++++++++++++++++",
"++++++++++++++++++++++++++++++++++++++++++++++++++++++++++++++++",
"++++++++++++++++++++++++++++++++++++++++++++++++++++++++++++++++",
"++++++++++++++++++++++++++++++++++++++++++++++++++++++++++++++++",
"++++++++++++++++++++++++++++++++++++++++++++++++++++++++++++++++",
"++++++++++++++++++++++++++++++++++++++++++++++++++++++++++++++++",
"++++++++++++++++++++++++++++++++++++++++++++++++++++++++++++++++",
"++++++++++++++++++++++++++++++++++++++++++++++++++++++++++++++++",
"++++++++++++++++++++++++++++++++++++++++++++++++++++++++++++++++",
"++++++++++++++++++++++++++++++++++++++++++++++++++++++++++++++++",
"++++++++++++++++++++++++++++++++++++++++++++++++++++++++++++++++",
"++++++++++++++++++++++++++++++++++++++++++++++++++++++++++++++++",
"++++++++++++++++++++++++++++++++++++++++++++++++++++++++++++++++",
"++++++++++++++++++++++++++++++++++++++++++++++++++++++++++++++++",
"++++++++++++++++++++++++++++++++++++++++++++++++++++++++++++++++",
"++++++++++++++++++++++++++++++++++++++++++++++++++++++++++++++++",
"++++++++++++++++++++++++++++++++++++++++++++++++++++++++++++++++"
};
