/* XPM */
static char *result[] = {
/* columns rows colors chars-per-pixel */
"64 64 6 1 ",
"  c black",
". c #0297D6",
"X c #01A8F4",
"o c #83C9E8",
"O c #ACD6E8",
"+ c #181425",
/* pixels */
"++++++++++++++++++++++++++++++++++++++++++++++++++++++++++++++++",
"++++++++++++++++++++++++++++++++++++++++++++++++++++++++++++++++",
"++++++++++++++++++++++++++++++++++++++++++++++++++++++++++++++++",
"++++++++++++++++++++++++++++++++++++++++++++++++++++++++++++++++",
"++++++++++++++++++++++++++++++++++++++++++++++++++++++++++++++++",
"++++++++++++++++++++++++++++++++++++++++++++++++++++++++++++++++",
"++++++++++++++++++++++++++++++++++++++++++++++++++++++++++++++++",
"++++++++++++++++++++++++++++++++++++++++++++++++++++++++++++++++",
"++++++++++++++++++++++++++++++++++++++++++++++++++++++++++++++++",
"++++++++++++++++++++++++++++++++++++++++++++++++++++++++++++++++",
"++++++++++++++++++++++++++++++++++++++++++++++++++++++++++++++++",
"++++++++++++++++++++++++++++++++++++++++++++++++++++++++++++++++",
"++++++++++++++++++++++++++++++++++++++++++++++++++++++++++++++++",
"++++++++++++++++++++++++++++++++++++++++++++++++++++++++++++++++",
"++++++++++++++++++++++++++++++++++++++++++++++++++++++++++++++++",
"++++++++++++++++++++++++++++++++++++++++++++++++++++++++++++++++",
"++++++++++++++++++++++++++++++++++++++++++++++++++++++++++++++++",
"++++++++++++++++++++++++++++++++++++++++++++++++++++++++++++++++",
"++++++++++++++++++++++++++++++++++++++++++++++++++++++++++++++++",
"++++++++++++++++++++++++++++++++++++++++++++++++++++++++++++++++",
"++++++++++++++++++++++++++++++++++++++++++++++++++++++++++++++++",
"++++++++++++++++++++++++++++++++++++++++++++++++++++++++++++++++",
"++++++++++++++++++++++++++++++++++++++++++++++++++++++++++++++++",
"++++++++++++++++++++++++++++++++++++++++++++++++++++++++++++++++",
"++++++++++++++++++++++++                  ++++++++++++++++++++++",
"+++++++++++++++++++++++ oXXXXXXXOOXXXXXXXo +++++++++++++++++++++",
"++++++++++++++++++++++ ..oXXXXXoOOoXXXXXo.. ++++++++++++++++++++",
"+++++++++++++++++++++ .XX.oXXXo.OO.oXXXo.XX. +++++++++++++++++++",
"++++++++++++++++++++ .XXXX.oXo.XOOX.oXo.XXXX. ++++++++++++++++++",
"++++++++++++++++++++ .XXXXX.o.XXOOXX.o.XXXXX. ++++++++++++++++++",
"++++++++++++++++++++ oooooooooooOOooooooooooo ++++++++++++++++++",
"+++++++++++++++++++++ ......o...OO...o...... +++++++++++++++++++",
"++++++++++++++++++++++ .XXX.o.XXOOXX.o.XXX. ++++++++++++++++++++",
"+++++++++++++++++++++++ .XXX.o.XOOX.o.XXX. +++++++++++++++++++++",
"++++++++++++++++++++++++ .XX.o.XOOX.o.XX. ++++++++++++++++++++++",
"+++++++++++++++++++++++++ .XX.o.OO.o.XX. +++++++++++++++++++++++",
"++++++++++++++++++++++++++ .X.o.OO.o.X. ++++++++++++++++++++++++",
"+++++++++++++++++++++++++++ ..o.OO.o.. +++++++++++++++++++++++++",
"++++++++++++++++++++++++++++ ..oOOo.. ++++++++++++++++++++++++++",
"+++++++++++++++++++++++++++++ .oOOo. +++++++++++++++++++++++++++",
"++++++++++++++++++++++++++++++ .OO. ++++++++++++++++++++++++++++",
"+++++++++++++++++++++++++++++++ OO +++++++++++++++++++++++++++++",
"++++++++++++++++++++++++++++++++  ++++++++++++++++++++++++++++++",
"++++++++++++++++++++++++++++++++++++++++++++++++++++++++++++++++",
"++++++++++++++++++++++++++++++++++++++++++++++++++++++++++++++++",
"++++++++++++++++++++++++++++++++++++++++++++++++++++++++++++++++",
"++++++++++++++++++++++++++++++++++++++++++++++++++++++++++++++++",
"++++++++++++++++++++++++++++++++++++++++++++++++++++++++++++++++",
"++++++++++++++++++++++++++++++++++++++++++++++++++++++++++++++++",
"++++++++++++++++++++++++++++++++++++++++++++++++++++++++++++++++",
"++++++++++++++++++++++++++++++++++++++++++++++++++++++++++++++++",
"++++++++++++++++++++++++++++++++++++++++++++++++++++++++++++++++",
"++++++++++++++++++++++++++++++++++++++++++++++++++++++++++++++++",
"++++++++++++++++++++++++++++++++++++++++++++++++++++++++++++++++",
"++++++++++++++++++++++++++++++++++++++++++++++++++++++++++++++++",
"++++++++++++++++++++++++++++++++++++++++++++++++++++++++++++++++",
"++++++++++++++++++++++++++++++++++++++++++++++++++++++++++++++++",
"++++++++++++++++++++++++++++++++++++++++++++++++++++++++++++++++",
"++++++++++++++++++++++++++++++++++++++++++++++++++++++++++++++++",
"++++++++++++++++++++++++++++++++++++++++++++++++++++++++++++++++",
"++++++++++++++++++++++++++++++++++++++++++++++++++++++++++++++++",
"++++++++++++++++++++++++++++++++++++++++++++++++++++++++++++++++",
"++++++++++++++++++++++++++++++++++++++++++++++++++++++++++++++++",
"++++++++++++++++++++++++++++++++++++++++++++++++++++++++++++++++"
};
