/* XPM */
static char *result[] = {
/* columns rows colors chars-per-pixel */
"64 64 6 1 ",
"  c black",
". c #0297D6",
"X c #01A8F4",
"o c #83C9E8",
"O c #ACD6E8",
"+ c #181425",
/* pixels */
"++++++++++++++++++++++++++++++++++++++++++++++++++++++++++++++++",
"++++++++++++++++++++++++++++++++++++++++++++++++++++++++++++++++",
"++++++++++++++++++++++++++++++++++++++++++++++++++++++++++++++++",
"++++++++++++++++++++++++++++++++++++++++++++++++++++++++++++++++",
"++++++++++++++++++++++++++++++++++++++++++++++++++++++++++++++++",
"++++++++++++++++++++++++++++++++++++++++++++++++++++++++++++++++",
"++++++++++++++++++++++++++++++++++++++++++++++++++++++++++++++++",
"++++++++++++++++++++++++++++++++++++++++++++++++++++++++++++++++",
"++++++++++++++++++++++++++++++++++++++++++++++++++++++++++++++++",
"++++++++++++++++++++++++++++++++++++++++++++++++++++++++++++++++",
"++++++++++++++++++++++++++++++++++++++++++++++++++++++++++++++++",
"++++++++++++++++++++++++++++++++++++++++++++++++++++++++++++++++",
"++++++++++++++++++++++++++++++++++++++++++++++++++++++++++++++++",
"++++++++++++++++++++++++++++++++++++++++++++++++++++++++++++++++",
"++++++++++++++++++++++++++++++++++++++++++++++++++++++++++++++++",
"++++++++++++++++++++++++++++++++++++++++++++++++++++++++++++++++",
"++++++++++++++++++++++++++++++++++++++++++++++++++++++++++++++++",
"++++++++++++++++++++++++++++++++++++++++++++++++++++++++++++++++",
"++++++++++++++++++++++++++++++++++++++++++++++++++++++++++++++++",
"++++++++++++++++++++++++++++++++++++++++++++++++++++++++++++++++",
"++++++++++++++++++++++++++++++++++++++++++++++++++++++++++++++++",
"++++++++++++++++++++++++++++++++++++++++++++++++++++++++++++++++",
"++++++++++++++++++++++++++++++++++++++++++++++++++++++++++++++++",
"++++++++++++++++++++++++++++++++++++++++++++++++++++++++++++++++",
"++++++++++++++++++++++++                  ++++++++++++++++++++++",
"+++++++++++++++++++++++ OXXXXXXXooXXXXXXXo +++++++++++++++++++++",
"++++++++++++++++++++++ O.oXXXXXo..oXXXXXo.. ++++++++++++++++++++",
"+++++++++++++++++++++ OOX.oXXXo.XX.oXXXo.XX. +++++++++++++++++++",
"++++++++++++++++++++ OOXXX.oXo.XXXX.oXo.XXXX. ++++++++++++++++++",
"++++++++++++++++++++ OOXXXX.o.XXXXXX.o.XXXXX. ++++++++++++++++++",
"++++++++++++++++++++ OOOooooooooooooooooooooo ++++++++++++++++++",
"+++++++++++++++++++++ OOO...o........o...... +++++++++++++++++++",
"++++++++++++++++++++++ OOOX.o.XXXXXX.o.XXX. ++++++++++++++++++++",
"+++++++++++++++++++++++ OOOX.o.XXXX.o.XXX. +++++++++++++++++++++",
"++++++++++++++++++++++++ OOO.o.XXXX.o.XX. ++++++++++++++++++++++",
"+++++++++++++++++++++++++ OOO.o.XX.o.XX. +++++++++++++++++++++++",
"++++++++++++++++++++++++++ OOOo.XX.o.X. ++++++++++++++++++++++++",
"+++++++++++++++++++++++++++ OOO.XX.o.. +++++++++++++++++++++++++",
"++++++++++++++++++++++++++++ OOO..o.. ++++++++++++++++++++++++++",
"+++++++++++++++++++++++++++++ OOO.o. +++++++++++++++++++++++++++",
"++++++++++++++++++++++++++++++ OOo. ++++++++++++++++++++++++++++",
"+++++++++++++++++++++++++++++++ OO +++++++++++++++++++++++++++++",
"++++++++++++++++++++++++++++++++  ++++++++++++++++++++++++++++++",
"++++++++++++++++++++++++++++++++++++++++++++++++++++++++++++++++",
"++++++++++++++++++++++++++++++++++++++++++++++++++++++++++++++++",
"++++++++++++++++++++++++++++++++++++++++++++++++++++++++++++++++",
"++++++++++++++++++++++++++++++++++++++++++++++++++++++++++++++++",
"++++++++++++++++++++++++++++++++++++++++++++++++++++++++++++++++",
"++++++++++++++++++++++++++++++++++++++++++++++++++++++++++++++++",
"++++++++++++++++++++++++++++++++++++++++++++++++++++++++++++++++",
"++++++++++++++++++++++++++++++++++++++++++++++++++++++++++++++++",
"++++++++++++++++++++++++++++++++++++++++++++++++++++++++++++++++",
"++++++++++++++++++++++++++++++++++++++++++++++++++++++++++++++++",
"++++++++++++++++++++++++++++++++++++++++++++++++++++++++++++++++",
"++++++++++++++++++++++++++++++++++++++++++++++++++++++++++++++++",
"++++++++++++++++++++++++++++++++++++++++++++++++++++++++++++++++",
"++++++++++++++++++++++++++++++++++++++++++++++++++++++++++++++++",
"++++++++++++++++++++++++++++++++++++++++++++++++++++++++++++++++",
"++++++++++++++++++++++++++++++++++++++++++++++++++++++++++++++++",
"++++++++++++++++++++++++++++++++++++++++++++++++++++++++++++++++",
"++++++++++++++++++++++++++++++++++++++++++++++++++++++++++++++++",
"++++++++++++++++++++++++++++++++++++++++++++++++++++++++++++++++",
"++++++++++++++++++++++++++++++++++++++++++++++++++++++++++++++++",
"++++++++++++++++++++++++++++++++++++++++++++++++++++++++++++++++"
};
