/* XPM */
static char *result[] = {
/* columns rows colors chars-per-pixel */
"64 64 6 1 ",
"  c black",
". c #0297D6",
"X c #01A8F4",
"o c #83C9E8",
"O c #ACD6E8",
"+ c #181425",
/* pixels */
"++++++++++++++++++++++++++++++++++++++++++++++++++++++++++++++++",
"++++++++++++++++++++++++++++++++++++++++++++++++++++++++++++++++",
"++++++++++++++++++++++++++++++++++++++++++++++++++++++++++++++++",
"++++++++++++++++++++++++++++++++++++++++++++++++++++++++++++++++",
"++++++++++++++++++++++++++++++++++++++++++++++++++++++++++++++++",
"++++++++++++++++++++++++++++++++++++++++++++++++++++++++++++++++",
"++++++++++++++++++++++++++++++++++++++++++++++++++++++++++++++++",
"++++++++++++++++++++++++++++++++++++++++++++++++++++++++++++++++",
"++++++++++++++++++++++++++++++++++++++++++++++++++++++++++++++++",
"++++++++++++++++++++++++++++++++++++++++++++++++++++++++++++++++",
"++++++++++++++++++++++++++++++++++++++++++++++++++++++++++++++++",
"++++++++++++++++++++++++++++++++++++++++++++++++++++++++++++++++",
"++++++++++++++++++++++++++++++++++++++++++++++++++++++++++++++++",
"++++++++++++++++++++++++++++++++++++++++++++++++++++++++++++++++",
"++++++++++++++++++++++++++++++++++++++++++++++++++++++++++++++++",
"++++++++++++++++++++++++++++++++++++++++++++++++++++++++++++++++",
"++++++++++++++++++++++++++++++++++++++++++++++++++++++++++++++++",
"++++++++++++++++++++++++++++++++++++++++++++++++++++++++++++++++",
"++++++++++++++++++++++++++++++++++++++++++++++++++++++++++++++++",
"++++++++++++++++++++++++++++++++++++++++++++++++++++++++++++++++",
"++++++++++++++++++++++++++++++++++++++++++++++++++++++++++++++++",
"++++++++++++++++++++++++++++++++++++++++++++++++++++++++++++++++",
"++++++++++++++++++++++++++++++++++++++++++++++++++++++++++++++++",
"++++++++++++++++++++++++++++++++++++++++++++++++++++++++++++++++",
"++++++++++++++++++++++++                  ++++++++++++++++++++++",
"+++++++++++++++++++++++ oXXXXXXOOOOOOXXXXo +++++++++++++++++++++",
"++++++++++++++++++++++ ..oXXXXXoOOOOOOXXo.. ++++++++++++++++++++",
"+++++++++++++++++++++ .XX.oXXXo.XOOOOOOo.XX. +++++++++++++++++++",
"++++++++++++++++++++ .XXXX.oXo.XXOOOOOO.XXXX. ++++++++++++++++++",
"++++++++++++++++++++ .XXXXX.o.XXXOOOOO.XXXXX. ++++++++++++++++++",
"++++++++++++++++++++ ooooooooooooOOOOoooooooo ++++++++++++++++++",
"+++++++++++++++++++++ ......o....OOOOo...... +++++++++++++++++++",
"++++++++++++++++++++++ .XXX.o.XXOOOO.o.XXX. ++++++++++++++++++++",
"+++++++++++++++++++++++ .XXX.o.XOOO.o.XXX. +++++++++++++++++++++",
"++++++++++++++++++++++++ .XX.o.XOOX.o.XX. ++++++++++++++++++++++",
"+++++++++++++++++++++++++ .XX.o.OO.o.XX. +++++++++++++++++++++++",
"++++++++++++++++++++++++++ .X.o.OO.o.X. ++++++++++++++++++++++++",
"+++++++++++++++++++++++++++ ..o.OO.o.. +++++++++++++++++++++++++",
"++++++++++++++++++++++++++++ ..oOOo.. ++++++++++++++++++++++++++",
"+++++++++++++++++++++++++++++ .oOOo. +++++++++++++++++++++++++++",
"++++++++++++++++++++++++++++++ .OO. ++++++++++++++++++++++++++++",
"+++++++++++++++++++++++++++++++ OO +++++++++++++++++++++++++++++",
"++++++++++++++++++++++++++++++++  ++++++++++++++++++++++++++++++",
"++++++++++++++++++++++++++++++++++++++++++++++++++++++++++++++++",
"++++++++++++++++++++++++++++++++++++++++++++++++++++++++++++++++",
"++++++++++++++++++++++++++++++++++++++++++++++++++++++++++++++++",
"++++++++++++++++++++++++++++++++++++++++++++++++++++++++++++++++",
"++++++++++++++++++++++++++++++++++++++++++++++++++++++++++++++++",
"++++++++++++++++++++++++++++++++++++++++++++++++++++++++++++++++",
"++++++++++++++++++++++++++++++++++++++++++++++++++++++++++++++++",
"++++++++++++++++++++++++++++++++++++++++++++++++++++++++++++++++",
"++++++++++++++++++++++++++++++++++++++++++++++++++++++++++++++++",
"++++++++++++++++++++++++++++++++++++++++++++++++++++++++++++++++",
"++++++++++++++++++++++++++++++++++++++++++++++++++++++++++++++++",
"++++++++++++++++++++++++++++++++++++++++++++++++++++++++++++++++",
"++++++++++++++++++++++++++++++++++++++++++++++++++++++++++++++++",
"++++++++++++++++++++++++++++++++++++++++++++++++++++++++++++++++",
"++++++++++++++++++++++++++++++++++++++++++++++++++++++++++++++++",
"++++++++++++++++++++++++++++++++++++++++++++++++++++++++++++++++",
"++++++++++++++++++++++++++++++++++++++++++++++++++++++++++++++++",
"++++++++++++++++++++++++++++++++++++++++++++++++++++++++++++++++",
"++++++++++++++++++++++++++++++++++++++++++++++++++++++++++++++++",
"++++++++++++++++++++++++++++++++++++++++++++++++++++++++++++++++",
"++++++++++++++++++++++++++++++++++++++++++++++++++++++++++++++++"
};
