/* XPM */
static char *result[] = {
/* columns rows colors chars-per-pixel */
"64 64 7 1 ",
"  c #0E0715",
". c #262C46",
"X c #384667",
"o c #3B4A6C",
"O c #5B627B",
"+ c #526081",
"@ c #9AA8C5",
/* pixels */
"                                                                ",
"                                                                ",
"                                                                ",
"                                                                ",
"                                                                ",
"....................       .....................................",
".....................     ......................................",
"......................    ......................................",
"......................    ......................................",
"......................    ......................................",
"....o..........oooo...    oooo.......ooooooooooooooooooo...ooo..",
"..oooooooooooooooooooo   oooooooooooooooooooooooooooooooooooooo.",
"oooooooooooooooooooooo   ooooooooooooooooooooooooooooooooooooooo",
"oooooooooooooooooooooo   ooooooooooooooooooooooooooooooooooooooo",
"oooooooooooooooooooooo   ooooooooooooooooooooooooooooooooooooooo",
"oooooooooooooooooooooo   ooooooooooooooooooooooooooooooooooooooo",
"oooooooooooooooooooooo   ooooooooooooooooooooooooooooooooooooooo",
"oooooooooooooooooooooo   ooooooooooooooooooooooooooooooooooooooo",
"oooooooooooooooooo+o+o   ooooooooooooooooooooooooooooooooooooooo",
"oo++ooo++oooo+++++++++   o+++oooooooooooo+++oooo++oooooooooooooo",
"o+++++++++++++++++++++   ++++++++++++++++++++++++++++++++++ooooo",
"+++++++++++++++++++++     +++++++++++++++++++++++++++++ ++++++++",
"++++++++++++++++ +++        ++++++ +++++++  +++  +++++  ++++++++",
"+   ++       +               +++     +++++  ++   ++++    +++   +",
"                                                                ",
"                                                                ",
"............................................      ..............",
".............................................    ...............",
"...........................................oo    .o.............",
"....ooooooooooooo.....ooo.....ooo.....oooooooo   oooooo...ooo...",
"...ooooooooooooooooooooooooooooooooooooooooooo   oooooooooooooo.",
"oooooooooooooooooooooooooooooooooooooooooooooo   ooooooooooooooo",
"ooooooooooooooooooooooooooooooooooooooooooooooo  ooooooooooooooo",
"ooooooooooooooooooooooooooooooooooooooooooooooo  ooooooooooooooo",
"ooooooooooooooooooooooooooooooooooooooooooooooo  ooooooooooooooo",
"ooooooooooooooooooooooooooooooooooooooooooooooo  ooooooooooooooo",
"oooooo++++++++++ooooooooooooooooooooooooooooooo  +++ooo++++++++o",
"+++++++++++++++++++++++++++++ooooooooooooo+++o  ++++++++++++++++",
"++++++++++++++++++++++++++++++++++++++++++++++  ++++++++++++++++",
"++++++++++++++++++++++++++++++++++++++++++++++   +++++++++++++++",
"++++++++++++++++++++++++++++++++++++++++++++++  ++++++++++++++++",
"++++++++++++++++++++++++++++++++++++++++++++++  ++++++++++++++++",
"+++++++++++++++++++++++++++++++++++++++++++++   ++++++++++++++++",
"++++++ ++++++  ++++   ++++++  ++++  ++++++++    ++++++++++++++++",
"+  +   +++              ++++                     ++       + ++  ",
"        +                                                       ",
"                                                                ",
"...............................        .........................",
"................................     ...........................",
"................................    ............................",
"................................    o.ooooooooo..oooooo.........",
".....o.oo........ooooo..........   ooooooooooooooooooooooooooooo",
"oXoooooooooooooooooooooooooooooo   ooooooooooooooooooooooooooooo",
"oooooooooooooooooooooooooooooooo   ooooooooooooooooooooooooooooo",
"oooooooooooooooooooooooooooooooo   ooooooooooooooooooooooooooooo",
"ooooooooooooooooooooooooooooooooo   oooooooooooooooooooooooooooo",
"ooooooooooooooooooooooooooooooooo   oooooooooooooooooooooooooooo",
"oooooo+ooooooooooooooo++oooooooooo   oooooooooooooooooooooooo+oo",
"++++++++++++++++++++++++++++++++++   +++oo++oooo++++++oooo++++++",
"+++++++++++++++++++++++++++++++++++  +++++++++++++++++++++++++++",
"+++++++++++++++++++++++++++++++++++  +++++++++++++++++++++++++++",
"@++@@++@@@@@@@@@@+@@@+++++++++++++O  +++@@@+++++@@@@@++++++@@+++",
"@@@@@@@@@@@@@@@@@@@@@@@@@@@@@@@@@@@  @@@@@@@@@@@@@@@@@@@@@@@@@@@",
"@@@@@@@@@@@@@@@@@@@@@@@@@@@@@@@@@@@  @@@@@@@@@@@@@@@@@@@@@@@@@@@"
};
