/* XPM */
static char *result[] = {
/* columns rows colors chars-per-pixel */
"64 64 6 1 ",
"  c #0E0715",
". c #0F0917",
"X c #262C46",
"o c #3B4A6C",
"O c #526081",
"+ c #9AA8C5",
/* pixels */
"++XXXXXXXXXXXXXXXXXXXXXXXXXXX..........XXXXXXXXXXXXXXXXXX    ...",
"++XXXXXXXXXXXXXXXXXXXXXXXXXXXX........XXXXXXXXXXXXXXXXXX    ....",
"++XXXXXXXXXXXXXXXXXXXXXXXXXXXXX.....XXXXXXXXXXXXXXXXXXXX    ....",
"+++XXXXXXXXXXXXXXXXXXXXXXXXXXXX....XXXXXXXXXXXXXXXXXXXXXX  .....",
"+++XXXXXXXXXXXXXXXXXXXXXXXXXXXXX...XXXXXXXXXXXXXXXXXXXXXX  .....",
"+++XXXoooooooXXXXXXXooooooooooXX...XXooooXXXXXXooooXXXoooo  ....",
"+++ooooooooooooooooooooooooooooo...oooooooooXoooooooooooooo  ...",
"++oooooooooooooooooooooooooooooo...oooooooooooooooooooooo   ....",
"+++ooooooooooooooooooooooooooooo...oooooooooooooooooooooo  .....",
"+++ooooooooooooooooooooooooooooo...oooooooooooooooooooooo  .....",
"+++ooooooooooooooooooooooooooooo...ooooooooooooooooooooooo .....",
"++oooooooooooooooooooooooooooooo...ooooooooooooooooooooooo  ....",
"++oooooooooooooooooooooooooooooo...ooooooooooooooooooooooo  ....",
"++oooooooooooooooooooooooooooooo...ooooooooooooooooooooooo  ....",
"+++ooooooooooooooooooooooooooooo...oooooooooooooooooooooooo  ...",
"+++ooooooooooooooooooooooooooooo...oooooooooooooooooooooooo. ...",
"+++ooOOOOOooooooooOOOoooooOOOOOo...oOOooooooooOOoooooooOOO  ....",
"++OOOOOOOOOOOOOOOOOOOOOOOOOOOOO.....OOOoOOOOOOOOOO  OOOOOO .....",
"++OO OOO  OOO  OOOOOOO  OOO OO.......OOO O OOOOOOO   OOOOO  ....",
"++O                      O   .........O         O           ....",
"..   .. ............  .      ..........   .   .   ......    ....",
".. ...................... ............  ..................  ....",
"++XXXXXXXXXXXXXXXXXXXXXXXXXXXXXXXXXXXXX.......XXXXXXXXXXXX  ....",
"++XXXXXXXXXXXXXXXXXXXXXXXXXXXXXXXXXXXXXX.....XXXXXXXXXXXX   ....",
"++XXXXXXXXXXXXXXXXXXXXXXXXXXXXXXXXXXXXXXX....XXXXXXXXXXXX  .....",
"+++XXXXXXXXXXXXXXXXXXXXXXXXXXXXXXXXXXXXXX....XXXXXXXXXXXXXX ....",
"+++oXXXXXXXXXXXXXXXXXXXXXXXXXXXXXXXXXXXXX....XXXXXXXXXXXXX  ....",
"++oooooooooooXXXXXXXXXXXXXXXXXXXXXXXXXXXX....XXXooooXXXXXX  ....",
"++oooooooooooooooooooooooooooXXooXXoooooo....oooooooooXooo  ....",
"++ooooooooooooooooooooooooooooooooooooooo....ooooooooooooo .....",
"+++ooooooooooooooooooooooooooooooooooooooo...oooooooooooo  .....",
"+++ooooooooooooooooooooooooooooooooooooooo...ooooooooooooo .....",
"+++ooooooooooooooooooooooooooooooooooooooo...ooooooooooooo .....",
"+++oooooooooooooooooooooooooooooooooooooo....ooooooooooooo .....",
"++ooooooooooooooooooooooooooooooooooooooo....oooooooooooo  .....",
"++ooooooooooooooooooooooooooooooooooooooo.....ooooooooooo   ....",
"+++oooooooooOOooooooooooooOOOOooooooooOOo.....OOOOOoOOOoooo  ...",
"+++OOOOOOOOOOOO OOOOOOOO OOOOOOOOOOOOOOO......OOOOOOOOOOOOo. ...",
"+++OOOOOO OOOO   OO OOO  OOOOO OOO  OOO.......OOO OOOO  OOO.....",
"+++OO                      OO   OO   O.........O  O         ....",
"..... ..  .              .  .         .........     ....  . ....",
".................... ...........................................",
"+++XXXXXXXXXXXXX.........XXXXXXXXXXXXXXXXXXXXXXXXXXXXXXXXXX.....",
"+++XXXXXXXXXXXXXXX......XXXXXXXXXXXXXXXXXXXXXXXXXXXXXXXXXXX ....",
"++XXXXXXXXXXXXXXXX....XXXXXXXXXXXXXXXXXXXXXXXXXXXXXXXXXXXXX ....",
"++XXXXXXXXXXXXXXoo...ooXXXXXXXXXXXXXXXXXXXXXXXXXXXXXXXXXXX  ....",
"+++ooXXXXXoooooooo...oooooXXXXXooooXXXXXXXXXXXXXXXXXXXXooo .....",
"+++ooooooooooooooo...ooooooooooooooooooooooooXXoooooXooooo .....",
"+++ooooooooooooooo...ooooooooooooooooooooooooooooooooooooo  ....",
"++oooooooooooooooo...ooooooooooooooooooooooooooooooooooooo  ....",
"++oooooooooooooooo...ooooooooooooooooooooooooooooooooooo   .....",
"++oooooooooooooooo...oooooooooooooooooooooooooooooooooooo   ....",
"+++ooooooooooooooo...ooooooooooooooooooooooooooooooooooooo  ....",
"+++ooooooooooooooo...ooooooooooooooooooooooooooooooooooooo .....",
"+++oooooooooOOOOOO...OOooooooooooooooooooooooooooooooooooo  ....",
"++OOOOOOOOOOOOOOOO...OOOoOOOOooooooooooooOOooooooooOOOOOOOO     ",
"++OOOOOOOOOOOOOOOO...OOOOOOOOOOOOOOOOOOOOOOOOOOOOOOOOOOOOOO     ",
"++OOOOOOOOOOOOOOOO...OOOOOOOOOOOOOOOOOOOOOOOOOOOOOOOOOOOOOO     ",
"++OOOOOOOOOOOOOOOO...OOOOOOOOOOOOOOOOOOOOOOOOOOOOOOOOOOOOOO     ",
"++OOOOOOOO OOOOOO....OOOOOOOOOOOOOOOOOOOOOOOOOOOOOO OOOOOOO.    ",
"+++OOOO OO    OOO.....OOO O  OOOOOO  OOO  OO  OOOOO  OOOO O...  ",
"+++OO           .......O     O   O    OO      O OO         .....",
"... .... ..  ..  ......  ...   .   ..       .    . .       .....",
"...................................... ........................."
};
