/* XPM */
static char *result[] = {
/* columns rows colors chars-per-pixel */
"64 64 4 1 ",
"  c #0E0715",
". c #262C46",
"X c #3B4A6C",
"o c #526081",
/* pixels */
"                                                                ",
"   .................    .....................................   ",
"  ..................    ......................................  ",
" ....................  ........................................ ",
" .............XXXXXX.  .XXXXXXX......XXX........XXXX.......XXXX ",
" XXXXXXXXXXXXXXXXXXXX  XXXXXXXXXXXXXXXXXXXXXXXXXXXXXXXXXXXXXXXX ",
" XXXXXXXXXXXXXXXXXXXX  XXXXXXXXXXXXXXXXXXXXXXXXXXXXXXXXXXXXXXXX ",
" XXXXXXXXXXXXXXXXXXXX  XXXXXXXXXXXXXXXXXXXXXXXXXXXXXXXXXXXXXXXX ",
" XXXXXXXXXXXXXXXXXXXX  XXXXXXXXXXXXXXXXXXXXXXXXXXXXXXXXXXXXXXXX ",
" oooXXXXXoooooXXXXXXX  ooooooXXXXXXoooooooooooooXXXXXXooooooooo ",
"  oooooooooooo oooooo  ooooo oooooooooo  ooooo ooooooooooo  oo  ",
"    oooo    oo  ooooo   o o    ooooo             oooooooo       ",
"                                                                ",
"                                                                ",
"    ............................................     ........   ",
"  ...............................................   ........... ",
" ................................................  ............ ",
" ................................................  ............ ",
" ................................................  ............ ",
" ................................................  ............ ",
" XX..........XXXX.........XXXXXX......XXXXXXX...X  XXXX......XX ",
" XXXXXXXXXXXXXXXXXXXXXXXXXXXXXXXXXXXXXXXXXXXXXXXX  XXXXXXXXXXXX ",
" XXXXXXXXXXXXXXXXXXXXXXXXXXXXXXXXXXXXXXXXXXXXXXXX  XXXXXXXXXXXX ",
" XXXXXXXXXXXXXXXXXXXXXXXXXXXXXXXXXXXXXXXXXXXXXXXX  XXXXXXXXXXXX ",
" XXXXXXXXXXXXXXXXXXXXXXXXXXXXXXXXXXXXXXXXXXXXXXXX  XXXXXXXXXXXX ",
" XXXXXXXXXXXXXXXXXXXXXXXXXXXXXXXXXXXXXXXXXXXXXXXX  XXXXXXXXXXXX ",
" oXXoooooooooooXXXXooooooooooooooXXXXXXXXXXoooooo  ooooXXXXoooo ",
"  oo ooooooooooooooo   ooooooooooooooooooooooooo   ooooooooooo  ",
"     o      oo    o       o    ooooo   ooooo        oooo        ",
"                                                                ",
"                                                                ",
"  ..................     ....................................   ",
" ....................   ....................................... ",
" ....................  ........................................ ",
" ....................  ........................................ ",
" XX.............XX...  XXXX.........XXXXXX.....XXXX.......XXXXX ",
" XXXXXXXXXXXXXXXXXXXX  XXXXXXXXXXXXXXXXXXXXXXXXXXXXXXXXXXXXXXXX ",
" XXXXXXXXXXXXXXXXXXXX  XXXXXXXXXXXXXXXXXXXXXXXXXXXXXXXXXXXXXXXX ",
" XXXXXXXXXXXXXXXXXXXX  XXXXXXXXXXXXXXXXXXXXXXXXXXXXXXXXXXXXXXXX ",
" XXXXXXXXXXXXXXXXXXXX  XXXXXXXXXXXXXXXXXXXXXXXXXXXXXXXXXXXXXXXX ",
" XXXXXXXXXXXXXXXXXXXX  XXXXXXXXXXXXXXXXXXXXXXXXXXXXXXXXXXXXXXXX ",
"  XXXXXooooooooXXXXoo   oooooXXXXXXXXXXXXooooooooXXXXXoooXXXXoo ",
"   ooooo  oooooooooo    oooooooooooooooooooooooooooooooooooooo  ",
"    oooo       ooo       oooo  oooo    o    o   ooooo  o  ooo   ",
"                                                                ",
"                                                                ",
"    ..................................      .................   ",
"  .....................................    ...................  ",
" .......................................   .................... ",
" ........................................  .................... ",
" ........................................  .................... ",
" ........................................  .................... ",
" ........................................  .................... ",
" XXX.........XXXXXX...........XXXX.....XX  XXXXXX.....XXXXXXXXX ",
" XXXXXXX..XXXXXXXXXXXXXXXXXXXXXXXXXXXXXXX  XXXXXXXXXXXXXXXXXXXX ",
" XXXXXXXXXXXXXXXXXXXXXXXXXXXXXXXXXXXXXXXX  XXXXXXXXXXXXXXXXXXXX ",
" XXXXXXXXXXXXXXXXXXXXXXXXXXXXXXXXXXXXXXXX  XXXXXXXXXXXXXXXXXXXX ",
" XXXXXXXXXXXXXXXXXXXXXXXXXXXXXXXXXXXXXXXX  XXXXXXXXXXXXXXXXXXXX ",
" XXXXXXXXXXXXXXXXXXXXXXXXXXXXXXXXXXXXXXXX  XXXXXXXXXXXXXXXXXXXX ",
" XXXXXXXXXooooXXXXXXXXoooooooooooooXXXooo  oooooXXXXXXXXXXXXXXX ",
"  ooooooooooooooooooooooooooo oooooooooo    ooooooooooooooooooo ",
"   ooooo ooooo  ooooooo  oo    oooooooo      ooooo oo oo ooooo  ",
"    o o    ooo      ooo            ooo         ooo    oo        ",
"                                                                "
};
