/* XPM */
static char *result[] = {
/* columns rows colors chars-per-pixel */
"64 64 6 1 ",
"  c #0E0715",
". c #0F0917",
"X c #262C46",
"o c #3B4A6C",
"O c #526081",
"+ c #9AA8C5",
/* pixels */
"...    XXXXXXXXXXXXXXXXXX..........XXXXXXXXXXXXXXXXXXXXXXXXXXX++",
"....    XXXXXXXXXXXXXXXXXX........XXXXXXXXXXXXXXXXXXXXXXXXXXXX++",
"....    XXXXXXXXXXXXXXXXXXXX.....XXXXXXXXXXXXXXXXXXXXXXXXXXXXX++",
".....  XXXXXXXXXXXXXXXXXXXXXX....XXXXXXXXXXXXXXXXXXXXXXXXXXXX+++",
".....  XXXXXXXXXXXXXXXXXXXXXX...XXXXXXXXXXXXXXXXXXXXXXXXXXXXX+++",
"....  ooooXXXooooXXXXXXooooXX...XXooooooooooXXXXXXXoooooooXXX+++",
"...  ooooooooooooooXooooooooo...ooooooooooooooooooooooooooooo+++",
"....   oooooooooooooooooooooo...oooooooooooooooooooooooooooooo++",
".....  oooooooooooooooooooooo...ooooooooooooooooooooooooooooo+++",
".....  oooooooooooooooooooooo...ooooooooooooooooooooooooooooo+++",
"..... ooooooooooooooooooooooo...ooooooooooooooooooooooooooooo+++",
"....  ooooooooooooooooooooooo...oooooooooooooooooooooooooooooo++",
"....  ooooooooooooooooooooooo...oooooooooooooooooooooooooooooo++",
"....  ooooooooooooooooooooooo...oooooooooooooooooooooooooooooo++",
"...  oooooooooooooooooooooooo...ooooooooooooooooooooooooooooo+++",
"... .oooooooooooooooooooooooo...ooooooooooooooooooooooooooooo+++",
"....  OOOoooooooOOooooooooOOo...oOOOOOoooooOOOooooooooOOOOOoo+++",
"..... OOOOOO  OOOOOOOOOOoOOO.....OOOOOOOOOOOOOOOOOOOOOOOOOOOOO++",
"....  OOOOO   OOOOOOO O OOO.......OO OOO  OOOOOOO  OOO  OOO OO++",
"....           O         O.........   O                      O++",
"....    ......   .   .   ..........      .  ............ ..   ..",
"....  ..................  ............ ...................... ..",
"....  XXXXXXXXXXXX.......XXXXXXXXXXXXXXXXXXXXXXXXXXXXXXXXXXXXX++",
"....   XXXXXXXXXXXX.....XXXXXXXXXXXXXXXXXXXXXXXXXXXXXXXXXXXXXX++",
".....  XXXXXXXXXXXX....XXXXXXXXXXXXXXXXXXXXXXXXXXXXXXXXXXXXXXX++",
".... XXXXXXXXXXXXXX....XXXXXXXXXXXXXXXXXXXXXXXXXXXXXXXXXXXXXX+++",
"....  XXXXXXXXXXXXX....XXXXXXXXXXXXXXXXXXXXXXXXXXXXXXXXXXXXXo+++",
"....  XXXXXXooooXXX....XXXXXXXXXXXXXXXXXXXXXXXXXXXXooooooooooo++",
"....  oooXooooooooo....ooooooXXooXXooooooooooooooooooooooooooo++",
"..... ooooooooooooo....ooooooooooooooooooooooooooooooooooooooo++",
".....  oooooooooooo...ooooooooooooooooooooooooooooooooooooooo+++",
"..... ooooooooooooo...ooooooooooooooooooooooooooooooooooooooo+++",
"..... ooooooooooooo...ooooooooooooooooooooooooooooooooooooooo+++",
"..... ooooooooooooo....oooooooooooooooooooooooooooooooooooooo+++",
".....  oooooooooooo....ooooooooooooooooooooooooooooooooooooooo++",
"....   ooooooooooo.....ooooooooooooooooooooooooooooooooooooooo++",
"...  ooooOOOoOOOOO.....oOOooooooooOOOOooooooooooooOOooooooooo+++",
"... .oOOOOOOOOOOOO......OOOOOOOOOOOOOOO OOOOOOOO OOOOOOOOOOOO+++",
".....OOO  OOOO OOO.......OOO  OOO OOOOO  OOO OO   OOOO OOOOOO+++",
"....         O  O.........O   OO   OO                      OO+++",
".... .  ....     .........         .  .              .  .. .....",
"........................................... ....................",
".....XXXXXXXXXXXXXXXXXXXXXXXXXXXXXXXXXX.........XXXXXXXXXXXXX+++",
".... XXXXXXXXXXXXXXXXXXXXXXXXXXXXXXXXXXX......XXXXXXXXXXXXXXX+++",
".... XXXXXXXXXXXXXXXXXXXXXXXXXXXXXXXXXXXXX....XXXXXXXXXXXXXXXX++",
"....  XXXXXXXXXXXXXXXXXXXXXXXXXXXXXXXXXXXoo...ooXXXXXXXXXXXXXX++",
"..... oooXXXXXXXXXXXXXXXXXXXXooooXXXXXooooo...ooooooooXXXXXoo+++",
"..... oooooXoooooXXoooooooooooooooooooooooo...ooooooooooooooo+++",
"....  ooooooooooooooooooooooooooooooooooooo...ooooooooooooooo+++",
"....  ooooooooooooooooooooooooooooooooooooo...oooooooooooooooo++",
".....   ooooooooooooooooooooooooooooooooooo...oooooooooooooooo++",
"....   oooooooooooooooooooooooooooooooooooo...oooooooooooooooo++",
"....  ooooooooooooooooooooooooooooooooooooo...ooooooooooooooo+++",
"..... ooooooooooooooooooooooooooooooooooooo...ooooooooooooooo+++",
"....  oooooooooooooooooooooooooooooooooooOO...OOOOOOooooooooo+++",
"     OOOOOOOOooooooooOOooooooooooooOOOOoOOO...OOOOOOOOOOOOOOOO++",
"     OOOOOOOOOOOOOOOOOOOOOOOOOOOOOOOOOOOOOO...OOOOOOOOOOOOOOOO++",
"     OOOOOOOOOOOOOOOOOOOOOOOOOOOOOOOOOOOOOO...OOOOOOOOOOOOOOOO++",
"     OOOOOOOOOOOOOOOOOOOOOOOOOOOOOOOOOOOOOO...OOOOOOOOOOOOOOOO++",
"    .OOOOOOO OOOOOOOOOOOOOOOOOOOOOOOOOOOOOO....OOOOOO OOOOOOOO++",
"  ...O OOOO  OOOOO  OO  OOO  OOOOOO  O OOO.....OOO    OO OOOO+++",
".....         OO O      OO    O   O     O.......           OO+++",
".....       . .    .       ..   .   ...  ......  ..  .. .... ...",
"......................... ......................................"
};
