/* XPM */
static char *result[] = {
/* columns rows colors chars-per-pixel */
"64 64 7 1 ",
"  c #0E0715",
". c #262C46",
"X c #384667",
"o c #3B4A6C",
"O c #5B627B",
"+ c #526081",
"@ c #9AA8C5",
/* pixels */
"@@@@@@@@@@@@@@@@@@@@@@@@@@@@@@@@@@@  @@@@@@@@@@@@@@@@@@@@@@@@@@@",
"@@@@@@@@@@@@@@@@@@@@@@@@@@@@@@@@@@@  @@@@@@@@@@@@@@@@@@@@@@@@@@@",
"@++@@++@@@@@@@@@@+@@@+++++++++++++O  +++@@@+++++@@@@@++++++@@+++",
"+++++++++++++++++++++++++++++++++++  +++++++++++++++++++++++++++",
"+++++++++++++++++++++++++++++++++++  +++++++++++++++++++++++++++",
"++++++++++++++++++++++++++++++++++   +++oo++oooo++++++oooo++++++",
"oooooo+ooooooooooooooo++oooooooooo   oooooooooooooooooooooooo+oo",
"ooooooooooooooooooooooooooooooooo   oooooooooooooooooooooooooooo",
"ooooooooooooooooooooooooooooooooo   oooooooooooooooooooooooooooo",
"oooooooooooooooooooooooooooooooo   ooooooooooooooooooooooooooooo",
"oooooooooooooooooooooooooooooooo   ooooooooooooooooooooooooooooo",
"oXoooooooooooooooooooooooooooooo   ooooooooooooooooooooooooooooo",
".....o.oo........ooooo..........   ooooooooooooooooooooooooooooo",
"................................    o.ooooooooo..oooooo.........",
"................................    ............................",
"................................     ...........................",
"...............................        .........................",
"                                                                ",
"        +                                                       ",
"+  +   +++              ++++                     ++       + ++  ",
"++++++ ++++++  ++++   ++++++  ++++  ++++++++    ++++++++++++++++",
"+++++++++++++++++++++++++++++++++++++++++++++   ++++++++++++++++",
"++++++++++++++++++++++++++++++++++++++++++++++  ++++++++++++++++",
"++++++++++++++++++++++++++++++++++++++++++++++  ++++++++++++++++",
"++++++++++++++++++++++++++++++++++++++++++++++   +++++++++++++++",
"++++++++++++++++++++++++++++++++++++++++++++++  ++++++++++++++++",
"+++++++++++++++++++++++++++++ooooooooooooo+++o  ++++++++++++++++",
"oooooo++++++++++ooooooooooooooooooooooooooooooo  +++ooo++++++++o",
"ooooooooooooooooooooooooooooooooooooooooooooooo  ooooooooooooooo",
"ooooooooooooooooooooooooooooooooooooooooooooooo  ooooooooooooooo",
"ooooooooooooooooooooooooooooooooooooooooooooooo  ooooooooooooooo",
"ooooooooooooooooooooooooooooooooooooooooooooooo  ooooooooooooooo",
"oooooooooooooooooooooooooooooooooooooooooooooo   ooooooooooooooo",
"...ooooooooooooooooooooooooooooooooooooooooooo   oooooooooooooo.",
"....ooooooooooooo.....ooo.....ooo.....oooooooo   oooooo...ooo...",
"...........................................oo    .o.............",
".............................................    ...............",
"............................................      ..............",
"                                                                ",
"                                                                ",
"+   ++       +               +++     +++++  ++   ++++    +++   +",
"++++++++++++++++ +++        ++++++ +++++++  +++  +++++  ++++++++",
"+++++++++++++++++++++     +++++++++++++++++++++++++++++ ++++++++",
"o+++++++++++++++++++++   ++++++++++++++++++++++++++++++++++ooooo",
"oo++ooo++oooo+++++++++   o+++oooooooooooo+++oooo++oooooooooooooo",
"oooooooooooooooooo+o+o   ooooooooooooooooooooooooooooooooooooooo",
"oooooooooooooooooooooo   ooooooooooooooooooooooooooooooooooooooo",
"oooooooooooooooooooooo   ooooooooooooooooooooooooooooooooooooooo",
"oooooooooooooooooooooo   ooooooooooooooooooooooooooooooooooooooo",
"oooooooooooooooooooooo   ooooooooooooooooooooooooooooooooooooooo",
"oooooooooooooooooooooo   ooooooooooooooooooooooooooooooooooooooo",
"oooooooooooooooooooooo   ooooooooooooooooooooooooooooooooooooooo",
"..oooooooooooooooooooo   oooooooooooooooooooooooooooooooooooooo.",
"....o..........oooo...    oooo.......ooooooooooooooooooo...ooo..",
"......................    ......................................",
"......................    ......................................",
"......................    ......................................",
".....................     ......................................",
"....................       .....................................",
"                                                                ",
"                                                                ",
"                                                                ",
"                                                                ",
"                                                                "
};
