/* XPM */
static char *result[] = {
/* columns rows colors chars-per-pixel */
"64 64 5 1 ",
"  c #0E0715",
". c #262C46",
"X c #3B4A6C",
"o c #526081",
"O c #9AA8C5",
/* pixels */
"OOOOOOOOOOOOOOOOOOOOOOOOOO  OOOOOOOOOOOOOOOOOOOOOOOOOOOOOOOOOOOO",
"OOOOOOOOOOOOOOOOOOOOOOOOOO  OOOOOOOOOOOOOOOOOOOOOOOOOOOOOOOOOOOO",
"OOOOooooOOOOOOOooooOOOoooo  ooooOOOOOOooooooooOOOOOOooooooOOOOOO",
"oooooooooooooooooooooooooo  oooooooooooooooooooooooooooooooooOOO",
"oooooooooooooooooooooooooo  oooooooooooooooooooooooooooooooooOOO",
"oooooooooooooooooooooooooo  oooooooooooooooooooooooooooooooooOOO",
"XoooooXXXooooooooooooooooo  ooooooooooooooooooooooooooooooooooOO",
"XXXXXXXXXXXXXXXXXXXXooooXX  oXXXXooXXXoXXXXXXooXXXXXXXoXXXXXXXOO",
"XXXXXXXXXXXXXXXXXXXXXXXXXX  XXXXXXXXXXXXXXXXXXXXXXXXXXXXXXXXXXOO",
"XXXXXXXXXXXXXXXXXXXXXXXXXX   XXXXXXXXXXXXXXXXXXXXXXXXXXXXXXXXXOO",
"XXXXXXXXXXXXXXXXXXXXXXXXXX   XXXXXXXXXXXXXXXXXXXXXXXXXXXXXXXXXOO",
"XX.......XXXXX..........X.    XXXXXXXX....XXXXXXXXXXXXXXXXXXXOOO",
"...........................    X.......................XX....OOO",
"............................   ...............................OO",
"............................   ...............................OO",
"............................   ..............................OOO",
"...........................     ..............................OO",
"                                                                ",
"                                                                ",
"o   ooo        o   o   o       o o  o           o           o OO",
"o ooooooooooo oooooo  ooo      ooooooo ooooooo ooooooo  o  oooOO",
"oooooooooooooooooooo oooo     ooooooooooooooooooooooooooooooooOO",
"oooooooooooooooooooooooooo    ooooooooooooooooooooooooooooooooOO",
"oooooooooooooooooooooooooo   oooooooooooooooooooooooooooooooooOO",
"ooooooooooooooooooooooooooo  oooooooooooooooooooooooooooooooooOO",
"ooooooooooooooooooooooooooX  XooooooooooooooooooooooooooooooooOO",
"oooXXXXXXXXXXoooXXXXXooooXX  XXXXXXooooXXXXXXXooooXXXXXXoooooOOO",
"XXXXXXXXXXXXXXXXXXXXXXXXXXX  XXXXXXXXXXXXXXXXXXXXXXXXXXXXXXXXOOO",
"XXXXXXXXXXXXXXXXXXXXXXXXXXX  XXXXXXXXXXXXXXXXXXXXXXXXXXXXXXXXOOO",
"XXXXXXXXXXXXXXXXXXXXXXXXXXX  XXXXXXXXXXXXXXXXXXXXXXXXXXXXXXXXXOO",
"XXXXXXXXXXXXXXXXXXXXXXXXXX   XXXXXXXXXXXXXXXXXXXXXXXXXXXXXXXXXOO",
"XXXXXXXXXXXXXXXXXXXXXXXXXX   XXXXXXXXXXXXXXXXXXXXXXXXXXXXXXXXXOO",
"XXXXXXXXXXXXXXXXXXXXXXXXX.   .XXXX..........XXX..XXXXXXXXXXXXXOO",
".....XXXXX......XXXXX.....   ...........................XX..X.OO",
".........................    .................................OO",
".........................     ...............................OOO",
".........................      ...............................OO",
".......................         ..............................OO",
"                                                                ",
"                                                                ",
"o  o   o oo       ooo   oo      oo              o    oo        O",
"o ooo oooooo     ooooo oooo   ooooo oooo  oo oooo  oooo oo  ooOO",
"ooooooooooooo   oooooooooooo ooooooooooooooooooooooooooooooooOOO",
"XXoXXXXXXXXXo   XXooooooXooooooXXXXoXXXXXXXooooooooooooooooooOOO",
"XXXXXXXXXXXXX  XXXXXXoXXXXXoooXXXXXXXXXXXXXXXXXXXXXXXXXXXXXXXOOO",
"XXXXXXXXXXXXX  XXXXXXXXXXXXXXXXXXXXXXXXXXXXXXXXXXXXXXXXXXXXXXOOO",
"XXXXXXXXXXXXX  XXXXXXXXXXXXXXXXXXXXXXXXXXXXXXXXXXXXXXXXXXXXXXOOO",
"XXXXXXXXXXXXX  XXXXXXXXXXXXXXXXXXXXXXXXXXXXXXXXXXXXXXXXXXXXXXOOO",
"XXXXXXXXXXXXX  XXXXXXXXXXXXXXXXXXXXXXXXXXXXXXXXXXXXXXXXXXXXXXXOO",
"XXXXXXXXXXXXX  XXXXXXXXXXXXXXXXXXXXXXXXXXXXXXXXXXXXXXXXXXXXXXXOO",
"XXXXXXXXXXXX.  XXXXXXXXXXXXXXXXXXXXXXXXXXXXXXXXXXXXXXXXXXXXXXXOO",
"XXXXXXXXXXX..  .XXXXXX.....XXX....XXXXXXXXXXXXXXXXXXXXXXXXXXXXOO",
"....X...X....  .......................XXX.....XXXXXXXXXXXX.XXOOO",
".............  .............................................OOOO",
".............  .............................................OOOO",
".............  ..............................................OOO",
".............   ..............................................OO",
"............     .............................................OO",
"...........       .............................................O",
"                                                                ",
"                                                                ",
"                                                                ",
"                                                                ",
"                                                                "
};
