/* XPM */
static char *result[] = {
/* columns rows colors chars-per-pixel */
"64 64 5 1 ",
"  c #0E0715",
". c #262C46",
"X c #3B4A6C",
"o c #526081",
"O c #9AA8C5",
/* pixels */
"OOOOOOOOOOOOOOOOOOOOOOOOOOOOOOOOOOOO  OOOOOOOOOOOOOOOOOOOOOOOOOO",
"OOOOOOOOOOOOOOOOOOOOOOOOOOOOOOOOOOOO  OOOOOOOOOOOOOOOOOOOOOOOOOO",
"OOOOOOooooooOOOOOOooooooooOOOOOOoooo  ooooOOOooooOOOOOOOooooOOOO",
"OOOooooooooooooooooooooooooooooooooo  oooooooooooooooooooooooooo",
"OOOooooooooooooooooooooooooooooooooo  oooooooooooooooooooooooooo",
"OOOooooooooooooooooooooooooooooooooo  oooooooooooooooooooooooooo",
"OOoooooooooooooooooooooooooooooooooo  oooooooooooooooooXXXoooooX",
"OOXXXXXXXoXXXXXXXooXXXXXXoXXXooXXXXo  XXooooXXXXXXXXXXXXXXXXXXXX",
"OOXXXXXXXXXXXXXXXXXXXXXXXXXXXXXXXXXX  XXXXXXXXXXXXXXXXXXXXXXXXXX",
"OOXXXXXXXXXXXXXXXXXXXXXXXXXXXXXXXXX   XXXXXXXXXXXXXXXXXXXXXXXXXX",
"OOXXXXXXXXXXXXXXXXXXXXXXXXXXXXXXXXX   XXXXXXXXXXXXXXXXXXXXXXXXXX",
"OOOXXXXXXXXXXXXXXXXXXX....XXXXXXXX    .X..........XXXXX.......XX",
"OOO....XX.......................X    ...........................",
"OO...............................   ............................",
"OO...............................   ............................",
"OOO..............................   ............................",
"OO..............................     ...........................",
"                                                                ",
"                                                                ",
"OO o           o           o  o o       o   o   o        ooo   o",
"OOooo  o  ooooooo ooooooo ooooooo      ooo  oooooo ooooooooooo o",
"OOoooooooooooooooooooooooooooooooo     oooo oooooooooooooooooooo",
"OOoooooooooooooooooooooooooooooooo    oooooooooooooooooooooooooo",
"OOooooooooooooooooooooooooooooooooo   oooooooooooooooooooooooooo",
"OOooooooooooooooooooooooooooooooooo  ooooooooooooooooooooooooooo",
"OOooooooooooooooooooooooooooooooooX  Xoooooooooooooooooooooooooo",
"OOOoooooXXXXXXooooXXXXXXXooooXXXXXX  XXooooXXXXXoooXXXXXXXXXXooo",
"OOOXXXXXXXXXXXXXXXXXXXXXXXXXXXXXXXX  XXXXXXXXXXXXXXXXXXXXXXXXXXX",
"OOOXXXXXXXXXXXXXXXXXXXXXXXXXXXXXXXX  XXXXXXXXXXXXXXXXXXXXXXXXXXX",
"OOXXXXXXXXXXXXXXXXXXXXXXXXXXXXXXXXX  XXXXXXXXXXXXXXXXXXXXXXXXXXX",
"OOXXXXXXXXXXXXXXXXXXXXXXXXXXXXXXXXX   XXXXXXXXXXXXXXXXXXXXXXXXXX",
"OOXXXXXXXXXXXXXXXXXXXXXXXXXXXXXXXXX   XXXXXXXXXXXXXXXXXXXXXXXXXX",
"OOXXXXXXXXXXXXX..XXX..........XXXX.   .XXXXXXXXXXXXXXXXXXXXXXXXX",
"OO.X..XX...........................   .....XXXXX......XXXXX.....",
"OO.................................    .........................",
"OOO...............................     .........................",
"OO...............................      .........................",
"OO..............................         .......................",
"                                                                ",
"                                                                ",
"O        oo    o              oo      oo   ooo       oo o   o  o",
"OOoo  oo oooo  oooo oo  oooo ooooo   oooo ooooo     oooooo ooo o",
"OOOoooooooooooooooooooooooooooooooo oooooooooooo   ooooooooooooo",
"OOOooooooooooooooooooXXXXXXXoXXXXooooooXooooooXX   oXXXXXXXXXoXX",
"OOOXXXXXXXXXXXXXXXXXXXXXXXXXXXXXXXoooXXXXXoXXXXXX  XXXXXXXXXXXXX",
"OOOXXXXXXXXXXXXXXXXXXXXXXXXXXXXXXXXXXXXXXXXXXXXXX  XXXXXXXXXXXXX",
"OOOXXXXXXXXXXXXXXXXXXXXXXXXXXXXXXXXXXXXXXXXXXXXXX  XXXXXXXXXXXXX",
"OOOXXXXXXXXXXXXXXXXXXXXXXXXXXXXXXXXXXXXXXXXXXXXXX  XXXXXXXXXXXXX",
"OOXXXXXXXXXXXXXXXXXXXXXXXXXXXXXXXXXXXXXXXXXXXXXXX  XXXXXXXXXXXXX",
"OOXXXXXXXXXXXXXXXXXXXXXXXXXXXXXXXXXXXXXXXXXXXXXXX  XXXXXXXXXXXXX",
"OOXXXXXXXXXXXXXXXXXXXXXXXXXXXXXXXXXXXXXXXXXXXXXXX  .XXXXXXXXXXXX",
"OOXXXXXXXXXXXXXXXXXXXXXXXXXXXX....XXX.....XXXXXX.  ..XXXXXXXXXXX",
"OOOXX.XXXXXXXXXXXX.....XXX.......................  ....X...X....",
"OOOO.............................................  .............",
"OOOO.............................................  .............",
"OOO..............................................  .............",
"OO..............................................   .............",
"OO.............................................     ............",
"O.............................................       ...........",
"                                                                ",
"                                                                ",
"                                                                ",
"                                                                ",
"                                                                "
};
